<mxfile host="app.diagrams.net" agent="Mozilla/5.0 (X11; Linux x86_64) AppleWebKit/537.36 (KHTML, like Gecko) Chrome/133.0.0.0 Safari/537.36" version="26.1.0" pages="3">
  <diagram id="0cv8EAnAlyXPcqW5hFCA" name="Page-1">
    <mxGraphModel dx="1674" dy="756" grid="1" gridSize="10" guides="1" tooltips="1" connect="1" arrows="1" fold="1" page="1" pageScale="1" pageWidth="1654" pageHeight="1169" math="0" shadow="0">
      <root>
        <mxCell id="0" />
        <mxCell id="1" parent="0" />
        <mxCell id="Uh3EYoIDJxqExJo5KB3Q-42" style="edgeStyle=orthogonalEdgeStyle;rounded=0;orthogonalLoop=1;jettySize=auto;html=1;entryX=0;entryY=0.5;entryDx=0;entryDy=0;endArrow=diamondThin;endFill=0;startSize=15;endSize=15;exitX=0.5;exitY=0;exitDx=0;exitDy=0;" parent="1" source="zRkCe7xuiFq9xMNUNCL5-33" target="zRkCe7xuiFq9xMNUNCL5-32" edge="1">
          <mxGeometry relative="1" as="geometry">
            <Array as="points">
              <mxPoint x="242" y="452" />
            </Array>
          </mxGeometry>
        </mxCell>
        <mxCell id="zRkCe7xuiFq9xMNUNCL5-33" value="CDE" style="rounded=0;whiteSpace=wrap;html=1;verticalAlign=middle;fillColor=#fff2cc;strokeColor=#d6b656;" parent="1" vertex="1">
          <mxGeometry x="182" y="520" width="120" height="60" as="geometry" />
        </mxCell>
        <mxCell id="Uh3EYoIDJxqExJo5KB3Q-45" style="edgeStyle=orthogonalEdgeStyle;rounded=0;orthogonalLoop=1;jettySize=auto;html=1;endArrow=diamondThin;endFill=0;startSize=15;endSize=15;" parent="1" source="zRkCe7xuiFq9xMNUNCL5-39" target="zRkCe7xuiFq9xMNUNCL5-38" edge="1">
          <mxGeometry relative="1" as="geometry" />
        </mxCell>
        <mxCell id="zRkCe7xuiFq9xMNUNCL5-39" value="CDE" style="rounded=0;whiteSpace=wrap;html=1;verticalAlign=middle;fillColor=#fff2cc;strokeColor=#d6b656;" parent="1" vertex="1">
          <mxGeometry x="12" y="891" width="120" height="60" as="geometry" />
        </mxCell>
        <mxCell id="Uh3EYoIDJxqExJo5KB3Q-14" style="edgeStyle=orthogonalEdgeStyle;rounded=0;orthogonalLoop=1;jettySize=auto;html=1;entryX=0.75;entryY=1;entryDx=0;entryDy=0;endArrow=diamondThin;endFill=0;startSize=15;endSize=15;" parent="1" source="zRkCe7xuiFq9xMNUNCL5-1" target="zRkCe7xuiFq9xMNUNCL5-30" edge="1">
          <mxGeometry relative="1" as="geometry" />
        </mxCell>
        <mxCell id="zRkCe7xuiFq9xMNUNCL5-1" value="Plan" style="rounded=0;whiteSpace=wrap;html=1;fillColor=#dae8fc;strokeColor=#6c8ebf;" parent="1" vertex="1">
          <mxGeometry x="484" y="725" width="120" height="60" as="geometry" />
        </mxCell>
        <mxCell id="Uh3EYoIDJxqExJo5KB3Q-21" style="edgeStyle=orthogonalEdgeStyle;rounded=0;orthogonalLoop=1;jettySize=auto;html=1;entryX=0.5;entryY=0;entryDx=0;entryDy=0;endArrow=diamondThin;endFill=0;startSize=15;endSize=15;" parent="1" source="zRkCe7xuiFq9xMNUNCL5-3" target="zRkCe7xuiFq9xMNUNCL5-44" edge="1">
          <mxGeometry relative="1" as="geometry" />
        </mxCell>
        <mxCell id="zRkCe7xuiFq9xMNUNCL5-3" value="Collector" style="rounded=0;whiteSpace=wrap;html=1;fillColor=#dae8fc;strokeColor=#6c8ebf;" parent="1" vertex="1">
          <mxGeometry x="810" y="93.5" width="120" height="60" as="geometry" />
        </mxCell>
        <mxCell id="Uh3EYoIDJxqExJo5KB3Q-40" style="edgeStyle=orthogonalEdgeStyle;rounded=0;orthogonalLoop=1;jettySize=auto;html=1;entryX=0.25;entryY=0;entryDx=0;entryDy=0;endArrow=diamondThin;endFill=0;startSize=15;endSize=15;exitX=0.5;exitY=1;exitDx=0;exitDy=0;" parent="1" source="zRkCe7xuiFq9xMNUNCL5-4" target="zRkCe7xuiFq9xMNUNCL5-5" edge="1">
          <mxGeometry relative="1" as="geometry">
            <Array as="points">
              <mxPoint x="101" y="100" />
            </Array>
          </mxGeometry>
        </mxCell>
        <mxCell id="zRkCe7xuiFq9xMNUNCL5-4" value="CDE&lt;br&gt;(Configurable&lt;br&gt;Data Entity)" style="rounded=0;whiteSpace=wrap;html=1;verticalAlign=middle;fillColor=#fff2cc;strokeColor=#d6b656;" parent="1" vertex="1">
          <mxGeometry x="40" y="40" width="120" height="60" as="geometry" />
        </mxCell>
        <mxCell id="BEIevK5eTRCsn4OwJl81-17" style="edgeStyle=orthogonalEdgeStyle;rounded=0;orthogonalLoop=1;jettySize=auto;html=1;entryX=0.25;entryY=0;entryDx=0;entryDy=0;endArrow=diamondThin;endFill=0;startSize=15;endSize=15;" parent="1" source="zRkCe7xuiFq9xMNUNCL5-5" target="zRkCe7xuiFq9xMNUNCL5-28" edge="1">
          <mxGeometry relative="1" as="geometry">
            <mxPoint x="231" y="307" as="targetPoint" />
          </mxGeometry>
        </mxCell>
        <mxCell id="zRkCe7xuiFq9xMNUNCL5-5" value="Product" style="rounded=0;whiteSpace=wrap;html=1;fillColor=#dae8fc;strokeColor=#6c8ebf;" parent="1" vertex="1">
          <mxGeometry x="71" y="218" width="120" height="60" as="geometry" />
        </mxCell>
        <mxCell id="Uh3EYoIDJxqExJo5KB3Q-8" style="edgeStyle=orthogonalEdgeStyle;rounded=0;orthogonalLoop=1;jettySize=auto;html=1;entryX=0.75;entryY=1;entryDx=0;entryDy=0;endArrow=diamondThin;endFill=1;startSize=15;endSize=15;exitX=0;exitY=0.25;exitDx=0;exitDy=0;" parent="1" source="zRkCe7xuiFq9xMNUNCL5-20" target="zRkCe7xuiFq9xMNUNCL5-28" edge="1">
          <mxGeometry relative="1" as="geometry">
            <Array as="points">
              <mxPoint x="552" y="453" />
            </Array>
          </mxGeometry>
        </mxCell>
        <mxCell id="zRkCe7xuiFq9xMNUNCL5-20" value="FinancialPlan" style="rounded=0;whiteSpace=wrap;html=1;fillColor=#dae8fc;strokeColor=#6c8ebf;" parent="1" vertex="1">
          <mxGeometry x="661" y="421" width="120" height="60" as="geometry" />
        </mxCell>
        <mxCell id="Uh3EYoIDJxqExJo5KB3Q-37" style="edgeStyle=orthogonalEdgeStyle;rounded=0;orthogonalLoop=1;jettySize=auto;html=1;entryX=0.75;entryY=0;entryDx=0;entryDy=0;endArrow=diamondThin;endFill=0;startSize=15;endSize=15;exitX=0.5;exitY=1;exitDx=0;exitDy=0;" parent="1" source="zRkCe7xuiFq9xMNUNCL5-23" target="zRkCe7xuiFq9xMNUNCL5-28" edge="1">
          <mxGeometry relative="1" as="geometry">
            <Array as="points">
              <mxPoint x="552" y="241" />
            </Array>
          </mxGeometry>
        </mxCell>
        <mxCell id="zRkCe7xuiFq9xMNUNCL5-23" value="CDE" style="rounded=0;whiteSpace=wrap;html=1;verticalAlign=middle;fillColor=#fff2cc;strokeColor=#d6b656;" parent="1" vertex="1">
          <mxGeometry x="492" y="170" width="120" height="60" as="geometry" />
        </mxCell>
        <mxCell id="Uh3EYoIDJxqExJo5KB3Q-44" style="edgeStyle=orthogonalEdgeStyle;rounded=0;orthogonalLoop=1;jettySize=auto;html=1;endArrow=diamondThin;endFill=0;startSize=15;endSize=15;exitX=0.5;exitY=0;exitDx=0;exitDy=0;" parent="1" source="zRkCe7xuiFq9xMNUNCL5-25" target="zRkCe7xuiFq9xMNUNCL5-36" edge="1">
          <mxGeometry relative="1" as="geometry">
            <Array as="points">
              <mxPoint x="152" y="712" />
            </Array>
          </mxGeometry>
        </mxCell>
        <mxCell id="zRkCe7xuiFq9xMNUNCL5-25" value="CDE" style="rounded=0;whiteSpace=wrap;html=1;verticalAlign=middle;fillColor=#fff2cc;strokeColor=#d6b656;" parent="1" vertex="1">
          <mxGeometry x="92" y="725" width="120" height="60" as="geometry" />
        </mxCell>
        <mxCell id="Uh3EYoIDJxqExJo5KB3Q-38" style="edgeStyle=orthogonalEdgeStyle;rounded=0;orthogonalLoop=1;jettySize=auto;html=1;entryX=0.25;entryY=0;entryDx=0;entryDy=0;endArrow=diamondThin;endFill=0;startSize=15;endSize=15;exitX=1;exitY=0.5;exitDx=0;exitDy=0;" parent="1" source="zRkCe7xuiFq9xMNUNCL5-26" target="zRkCe7xuiFq9xMNUNCL5-31" edge="1">
          <mxGeometry relative="1" as="geometry">
            <Array as="points">
              <mxPoint x="432" y="822" />
            </Array>
          </mxGeometry>
        </mxCell>
        <mxCell id="zRkCe7xuiFq9xMNUNCL5-26" value="CDE" style="rounded=0;whiteSpace=wrap;html=1;verticalAlign=middle;fillColor=#fff2cc;strokeColor=#d6b656;" parent="1" vertex="1">
          <mxGeometry x="253" y="792" width="120" height="60" as="geometry" />
        </mxCell>
        <mxCell id="Uh3EYoIDJxqExJo5KB3Q-48" style="edgeStyle=orthogonalEdgeStyle;rounded=0;orthogonalLoop=1;jettySize=auto;html=1;entryX=1;entryY=0.5;entryDx=0;entryDy=0;endArrow=diamondThin;endFill=0;startSize=15;endSize=15;exitX=0;exitY=0.5;exitDx=0;exitDy=0;" parent="1" source="zRkCe7xuiFq9xMNUNCL5-27" target="zRkCe7xuiFq9xMNUNCL5-53" edge="1">
          <mxGeometry relative="1" as="geometry">
            <Array as="points">
              <mxPoint x="1360" y="190" />
              <mxPoint x="1360" y="150" />
            </Array>
            <mxPoint x="1590.7499999999995" y="208.99999999999977" as="targetPoint" />
          </mxGeometry>
        </mxCell>
        <mxCell id="zRkCe7xuiFq9xMNUNCL5-27" value="CDE" style="rounded=0;whiteSpace=wrap;html=1;verticalAlign=middle;fillColor=#fff2cc;strokeColor=#d6b656;" parent="1" vertex="1">
          <mxGeometry x="1400" y="160" width="120" height="60" as="geometry" />
        </mxCell>
        <mxCell id="zRkCe7xuiFq9xMNUNCL5-28" value="Policy" style="rounded=0;whiteSpace=wrap;html=1;verticalAlign=middle;fillColor=#dae8fc;strokeColor=#6c8ebf;" parent="1" vertex="1">
          <mxGeometry x="282" y="319" width="360" height="60" as="geometry" />
        </mxCell>
        <mxCell id="BEIevK5eTRCsn4OwJl81-5" style="edgeStyle=orthogonalEdgeStyle;rounded=0;orthogonalLoop=1;jettySize=auto;html=1;entryX=0.5;entryY=1;entryDx=0;entryDy=0;endArrow=diamondThin;endFill=1;endSize=15;startSize=15;" parent="1" source="zRkCe7xuiFq9xMNUNCL5-30" target="zRkCe7xuiFq9xMNUNCL5-28" edge="1">
          <mxGeometry relative="1" as="geometry">
            <mxPoint x="601" y="628" as="targetPoint" />
          </mxGeometry>
        </mxCell>
        <mxCell id="zRkCe7xuiFq9xMNUNCL5-30" value="InsurableObject" style="rounded=0;whiteSpace=wrap;html=1;verticalAlign=middle;fillColor=#dae8fc;strokeColor=#6c8ebf;" parent="1" vertex="1">
          <mxGeometry x="402" y="580" width="120" height="60" as="geometry" />
        </mxCell>
        <mxCell id="BEIevK5eTRCsn4OwJl81-7" style="edgeStyle=orthogonalEdgeStyle;rounded=0;orthogonalLoop=1;jettySize=auto;html=1;entryX=0.5;entryY=1;entryDx=0;entryDy=0;endArrow=diamondThin;endFill=1;startSize=15;endSize=15;" parent="1" source="zRkCe7xuiFq9xMNUNCL5-31" target="zRkCe7xuiFq9xMNUNCL5-30" edge="1">
          <mxGeometry relative="1" as="geometry" />
        </mxCell>
        <mxCell id="zRkCe7xuiFq9xMNUNCL5-31" value="Coverage" style="rounded=0;whiteSpace=wrap;html=1;verticalAlign=middle;fillColor=#dae8fc;strokeColor=#6c8ebf;" parent="1" vertex="1">
          <mxGeometry x="402" y="859" width="120" height="60" as="geometry" />
        </mxCell>
        <mxCell id="Uh3EYoIDJxqExJo5KB3Q-5" style="edgeStyle=orthogonalEdgeStyle;rounded=0;orthogonalLoop=1;jettySize=auto;html=1;entryX=0.25;entryY=1;entryDx=0;entryDy=0;endArrow=diamondThin;endFill=1;startSize=15;endSize=15;" parent="1" source="zRkCe7xuiFq9xMNUNCL5-32" target="zRkCe7xuiFq9xMNUNCL5-28" edge="1">
          <mxGeometry relative="1" as="geometry" />
        </mxCell>
        <mxCell id="zRkCe7xuiFq9xMNUNCL5-32" value="Event" style="rounded=0;whiteSpace=wrap;html=1;verticalAlign=middle;fillColor=#dae8fc;strokeColor=#6c8ebf;" parent="1" vertex="1">
          <mxGeometry x="312" y="422" width="120" height="60" as="geometry" />
        </mxCell>
        <mxCell id="Uh3EYoIDJxqExJo5KB3Q-16" style="edgeStyle=orthogonalEdgeStyle;rounded=0;orthogonalLoop=1;jettySize=auto;html=1;entryX=0.25;entryY=1;entryDx=0;entryDy=0;endArrow=diamondThin;endFill=1;startSize=15;endSize=15;" parent="1" source="zRkCe7xuiFq9xMNUNCL5-36" target="zRkCe7xuiFq9xMNUNCL5-30" edge="1">
          <mxGeometry relative="1" as="geometry" />
        </mxCell>
        <mxCell id="zRkCe7xuiFq9xMNUNCL5-36" value="Event" style="rounded=0;whiteSpace=wrap;html=1;verticalAlign=middle;fillColor=#dae8fc;strokeColor=#6c8ebf;" parent="1" vertex="1">
          <mxGeometry x="222" y="682" width="120" height="60" as="geometry" />
        </mxCell>
        <mxCell id="Uh3EYoIDJxqExJo5KB3Q-19" style="edgeStyle=orthogonalEdgeStyle;rounded=0;orthogonalLoop=1;jettySize=auto;html=1;endArrow=diamondThin;endFill=1;startSize=15;endSize=15;" parent="1" source="zRkCe7xuiFq9xMNUNCL5-38" target="zRkCe7xuiFq9xMNUNCL5-31" edge="1">
          <mxGeometry relative="1" as="geometry" />
        </mxCell>
        <mxCell id="zRkCe7xuiFq9xMNUNCL5-38" value="Event" style="rounded=0;whiteSpace=wrap;html=1;verticalAlign=middle;fillColor=#dae8fc;strokeColor=#6c8ebf;" parent="1" vertex="1">
          <mxGeometry x="215" y="891" width="120" height="60" as="geometry" />
        </mxCell>
        <mxCell id="BEIevK5eTRCsn4OwJl81-28" style="edgeStyle=orthogonalEdgeStyle;rounded=0;orthogonalLoop=1;jettySize=auto;html=1;endArrow=diamondThin;endFill=0;startSize=15;endSize=15;exitX=0;exitY=0.5;exitDx=0;exitDy=0;" parent="1" source="zRkCe7xuiFq9xMNUNCL5-40" target="zRkCe7xuiFq9xMNUNCL5-53" edge="1">
          <mxGeometry relative="1" as="geometry">
            <Array as="points">
              <mxPoint x="1228" y="50" />
            </Array>
            <mxPoint x="1131" y="-71" as="targetPoint" />
          </mxGeometry>
        </mxCell>
        <mxCell id="zRkCe7xuiFq9xMNUNCL5-40" value="PartyRol" style="rounded=0;whiteSpace=wrap;html=1;verticalAlign=middle;fillColor=#dae8fc;strokeColor=#6c8ebf;" parent="1" vertex="1">
          <mxGeometry x="1270" y="20" width="120" height="60" as="geometry" />
        </mxCell>
        <mxCell id="BEIevK5eTRCsn4OwJl81-27" style="edgeStyle=orthogonalEdgeStyle;rounded=0;orthogonalLoop=1;jettySize=auto;html=1;endArrow=diamondThin;endFill=0;startSize=15;endSize=15;exitX=1;exitY=0.5;exitDx=0;exitDy=0;entryX=0.25;entryY=0;entryDx=0;entryDy=0;" parent="1" source="zRkCe7xuiFq9xMNUNCL5-41" target="zRkCe7xuiFq9xMNUNCL5-53" edge="1">
          <mxGeometry relative="1" as="geometry">
            <Array as="points" />
            <mxPoint x="1081" y="-41" as="targetPoint" />
          </mxGeometry>
        </mxCell>
        <mxCell id="zRkCe7xuiFq9xMNUNCL5-41" value="Party" style="rounded=0;whiteSpace=wrap;html=1;verticalAlign=middle;fillColor=#dae8fc;strokeColor=#6c8ebf;" parent="1" vertex="1">
          <mxGeometry x="1010" y="20" width="120" height="60" as="geometry" />
        </mxCell>
        <mxCell id="Uh3EYoIDJxqExJo5KB3Q-52" style="edgeStyle=orthogonalEdgeStyle;rounded=0;orthogonalLoop=1;jettySize=auto;html=1;entryX=0.5;entryY=1;entryDx=0;entryDy=0;endArrow=diamondThin;endFill=0;startSize=15;endSize=15;exitX=0;exitY=0.5;exitDx=0;exitDy=0;" parent="1" source="zRkCe7xuiFq9xMNUNCL5-42" target="zRkCe7xuiFq9xMNUNCL5-40" edge="1">
          <mxGeometry relative="1" as="geometry">
            <Array as="points">
              <mxPoint x="1330" y="109" />
            </Array>
          </mxGeometry>
        </mxCell>
        <mxCell id="zRkCe7xuiFq9xMNUNCL5-42" value="CDE" style="rounded=0;whiteSpace=wrap;html=1;verticalAlign=middle;fillColor=#fff2cc;strokeColor=#d6b656;" parent="1" vertex="1">
          <mxGeometry x="1400" y="79" width="120" height="60" as="geometry" />
        </mxCell>
        <mxCell id="Uh3EYoIDJxqExJo5KB3Q-54" style="edgeStyle=orthogonalEdgeStyle;rounded=0;orthogonalLoop=1;jettySize=auto;html=1;entryX=0;entryY=0.5;entryDx=0;entryDy=0;endArrow=diamondThin;endFill=0;startSize=15;endSize=15;exitX=1;exitY=0.5;exitDx=0;exitDy=0;" parent="1" source="zRkCe7xuiFq9xMNUNCL5-43" target="zRkCe7xuiFq9xMNUNCL5-41" edge="1">
          <mxGeometry relative="1" as="geometry">
            <Array as="points">
              <mxPoint x="940" y="50.5" />
              <mxPoint x="990" y="50.5" />
            </Array>
          </mxGeometry>
        </mxCell>
        <mxCell id="zRkCe7xuiFq9xMNUNCL5-43" value="CDE" style="rounded=0;whiteSpace=wrap;html=1;verticalAlign=middle;fillColor=#fff2cc;strokeColor=#d6b656;" parent="1" vertex="1">
          <mxGeometry x="810" y="20" width="120" height="60" as="geometry" />
        </mxCell>
        <mxCell id="BEIevK5eTRCsn4OwJl81-21" style="edgeStyle=orthogonalEdgeStyle;rounded=0;orthogonalLoop=1;jettySize=auto;html=1;endArrow=diamondThin;endFill=1;startSize=15;endSize=15;entryX=0;entryY=0.5;entryDx=0;entryDy=0;exitX=0.75;exitY=0;exitDx=0;exitDy=0;" parent="1" source="zRkCe7xuiFq9xMNUNCL5-44" target="zRkCe7xuiFq9xMNUNCL5-53" edge="1">
          <mxGeometry relative="1" as="geometry">
            <mxPoint x="1170" y="313" as="targetPoint" />
          </mxGeometry>
        </mxCell>
        <mxCell id="zRkCe7xuiFq9xMNUNCL5-44" value="PaymentMode" style="rounded=0;whiteSpace=wrap;html=1;verticalAlign=middle;fillColor=#dae8fc;strokeColor=#6c8ebf;" parent="1" vertex="1">
          <mxGeometry x="1000" y="183.5" width="120" height="60" as="geometry" />
        </mxCell>
        <mxCell id="Uh3EYoIDJxqExJo5KB3Q-47" style="edgeStyle=orthogonalEdgeStyle;rounded=0;orthogonalLoop=1;jettySize=auto;html=1;entryX=0.5;entryY=1;entryDx=0;entryDy=0;endArrow=diamondThin;endFill=0;startSize=15;endSize=15;exitX=1;exitY=0.5;exitDx=0;exitDy=0;" parent="1" source="zRkCe7xuiFq9xMNUNCL5-45" target="zRkCe7xuiFq9xMNUNCL5-44" edge="1">
          <mxGeometry relative="1" as="geometry">
            <Array as="points">
              <mxPoint x="1060" y="263.5" />
            </Array>
          </mxGeometry>
        </mxCell>
        <mxCell id="zRkCe7xuiFq9xMNUNCL5-45" value="CDE" style="rounded=0;whiteSpace=wrap;html=1;verticalAlign=middle;fillColor=#fff2cc;strokeColor=#d6b656;" parent="1" vertex="1">
          <mxGeometry x="870" y="233.5" width="120" height="60" as="geometry" />
        </mxCell>
        <mxCell id="Uh3EYoIDJxqExJo5KB3Q-34" style="edgeStyle=orthogonalEdgeStyle;rounded=0;orthogonalLoop=1;jettySize=auto;html=1;entryX=1;entryY=0.75;entryDx=0;entryDy=0;endArrow=diamondThin;endFill=0;startSize=15;endSize=15;" parent="1" source="zRkCe7xuiFq9xMNUNCL5-46" target="zRkCe7xuiFq9xMNUNCL5-30" edge="1">
          <mxGeometry relative="1" as="geometry">
            <Array as="points">
              <mxPoint x="640" y="781" />
              <mxPoint x="640" y="625" />
            </Array>
          </mxGeometry>
        </mxCell>
        <mxCell id="zRkCe7xuiFq9xMNUNCL5-46" value="Requeriment" style="rounded=0;whiteSpace=wrap;html=1;verticalAlign=middle;fillColor=#dae8fc;strokeColor=#6c8ebf;" parent="1" vertex="1">
          <mxGeometry x="677" y="751" width="120" height="60" as="geometry" />
        </mxCell>
        <mxCell id="BEIevK5eTRCsn4OwJl81-16" style="edgeStyle=orthogonalEdgeStyle;rounded=0;orthogonalLoop=1;jettySize=auto;html=1;endArrow=diamondThin;endFill=0;startSize=15;endSize=15;entryX=0.5;entryY=0;entryDx=0;entryDy=0;" parent="1" source="zRkCe7xuiFq9xMNUNCL5-49" target="zRkCe7xuiFq9xMNUNCL5-28" edge="1">
          <mxGeometry relative="1" as="geometry">
            <mxPoint x="131" y="320" as="targetPoint" />
          </mxGeometry>
        </mxCell>
        <mxCell id="zRkCe7xuiFq9xMNUNCL5-49" value="Agreement" style="rounded=0;whiteSpace=wrap;html=1;fillColor=#dae8fc;strokeColor=#6c8ebf;" parent="1" vertex="1">
          <mxGeometry x="402" y="91" width="120" height="60" as="geometry" />
        </mxCell>
        <mxCell id="Uh3EYoIDJxqExJo5KB3Q-46" style="edgeStyle=orthogonalEdgeStyle;rounded=0;orthogonalLoop=1;jettySize=auto;html=1;entryX=0.5;entryY=1;entryDx=0;entryDy=0;endArrow=diamondThin;endFill=0;startSize=15;endSize=15;exitX=0.5;exitY=0;exitDx=0;exitDy=0;" parent="1" source="zRkCe7xuiFq9xMNUNCL5-50" target="zRkCe7xuiFq9xMNUNCL5-46" edge="1">
          <mxGeometry relative="1" as="geometry">
            <Array as="points">
              <mxPoint x="737" y="870" />
              <mxPoint x="737" y="870" />
            </Array>
          </mxGeometry>
        </mxCell>
        <mxCell id="zRkCe7xuiFq9xMNUNCL5-50" value="CDE" style="rounded=0;whiteSpace=wrap;html=1;verticalAlign=middle;fillColor=#fff2cc;strokeColor=#d6b656;" parent="1" vertex="1">
          <mxGeometry x="677" y="891" width="120" height="60" as="geometry" />
        </mxCell>
        <mxCell id="BEIevK5eTRCsn4OwJl81-26" style="edgeStyle=orthogonalEdgeStyle;rounded=0;orthogonalLoop=1;jettySize=auto;html=1;endArrow=diamondThin;endFill=0;startSize=15;endSize=15;entryX=1;entryY=0.75;entryDx=0;entryDy=0;exitX=0.5;exitY=0;exitDx=0;exitDy=0;" parent="1" source="zRkCe7xuiFq9xMNUNCL5-51" target="zRkCe7xuiFq9xMNUNCL5-53" edge="1">
          <mxGeometry relative="1" as="geometry">
            <Array as="points">
              <mxPoint x="1330" y="165" />
            </Array>
          </mxGeometry>
        </mxCell>
        <mxCell id="zRkCe7xuiFq9xMNUNCL5-51" value="Address Book" style="rounded=0;whiteSpace=wrap;html=1;fillColor=#dae8fc;strokeColor=#6c8ebf;" parent="1" vertex="1">
          <mxGeometry x="1270" y="210" width="120" height="60" as="geometry" />
        </mxCell>
        <mxCell id="Uh3EYoIDJxqExJo5KB3Q-49" style="edgeStyle=orthogonalEdgeStyle;rounded=0;orthogonalLoop=1;jettySize=auto;html=1;entryX=0.5;entryY=1;entryDx=0;entryDy=0;endArrow=diamondThin;endFill=0;startSize=15;endSize=15;exitX=0;exitY=0.5;exitDx=0;exitDy=0;" parent="1" source="zRkCe7xuiFq9xMNUNCL5-52" target="zRkCe7xuiFq9xMNUNCL5-51" edge="1">
          <mxGeometry relative="1" as="geometry">
            <Array as="points">
              <mxPoint x="1330" y="300" />
            </Array>
          </mxGeometry>
        </mxCell>
        <mxCell id="zRkCe7xuiFq9xMNUNCL5-52" value="CDE" style="rounded=0;whiteSpace=wrap;html=1;verticalAlign=middle;fillColor=#fff2cc;strokeColor=#d6b656;" parent="1" vertex="1">
          <mxGeometry x="1400" y="270" width="120" height="60" as="geometry" />
        </mxCell>
        <mxCell id="BEIevK5eTRCsn4OwJl81-25" style="edgeStyle=orthogonalEdgeStyle;rounded=0;orthogonalLoop=1;jettySize=auto;html=1;endArrow=diamondThin;endFill=1;startSize=15;endSize=15;exitX=0.25;exitY=1;exitDx=0;exitDy=0;" parent="1" source="zRkCe7xuiFq9xMNUNCL5-53" target="zRkCe7xuiFq9xMNUNCL5-28" edge="1">
          <mxGeometry relative="1" as="geometry">
            <mxPoint x="1258" y="218.5" as="sourcePoint" />
            <mxPoint x="900.5" y="349" as="targetPoint" />
            <Array as="points">
              <mxPoint x="1168" y="349" />
            </Array>
          </mxGeometry>
        </mxCell>
        <mxCell id="zRkCe7xuiFq9xMNUNCL5-53" value="Participation" style="rounded=0;whiteSpace=wrap;html=1;fillColor=#dae8fc;strokeColor=#6c8ebf;" parent="1" vertex="1">
          <mxGeometry x="1136" y="120" width="129" height="60" as="geometry" />
        </mxCell>
        <mxCell id="Uh3EYoIDJxqExJo5KB3Q-39" style="edgeStyle=orthogonalEdgeStyle;rounded=0;orthogonalLoop=1;jettySize=auto;html=1;entryX=0.75;entryY=0;entryDx=0;entryDy=0;endArrow=diamondThin;endFill=1;startSize=15;endSize=15;exitX=0;exitY=0.5;exitDx=0;exitDy=0;" parent="1" source="zRkCe7xuiFq9xMNUNCL5-54" target="zRkCe7xuiFq9xMNUNCL5-5" edge="1">
          <mxGeometry relative="1" as="geometry">
            <Array as="points">
              <mxPoint x="161" y="110" />
            </Array>
          </mxGeometry>
        </mxCell>
        <mxCell id="zRkCe7xuiFq9xMNUNCL5-54" value="Product Configuration" style="rounded=0;whiteSpace=wrap;html=1;fillColor=#dae8fc;strokeColor=#6c8ebf;" parent="1" vertex="1">
          <mxGeometry x="242" y="80" width="120" height="60" as="geometry" />
        </mxCell>
        <mxCell id="Uh3EYoIDJxqExJo5KB3Q-36" style="edgeStyle=orthogonalEdgeStyle;rounded=0;orthogonalLoop=1;jettySize=auto;html=1;endArrow=diamondThin;endFill=0;startSize=15;endSize=15;exitX=0;exitY=0.5;exitDx=0;exitDy=0;entryX=0.75;entryY=0;entryDx=0;entryDy=0;" parent="1" source="BEIevK5eTRCsn4OwJl81-33" target="zRkCe7xuiFq9xMNUNCL5-30" edge="1">
          <mxGeometry relative="1" as="geometry">
            <Array as="points">
              <mxPoint x="492" y="541" />
            </Array>
            <mxPoint x="950" y="542" as="targetPoint" />
          </mxGeometry>
        </mxCell>
        <mxCell id="BEIevK5eTRCsn4OwJl81-33" value="CDE" style="rounded=0;whiteSpace=wrap;html=1;verticalAlign=middle;fillColor=#fff2cc;strokeColor=#d6b656;" parent="1" vertex="1">
          <mxGeometry x="662" y="511" width="120" height="60" as="geometry" />
        </mxCell>
        <mxCell id="Uh3EYoIDJxqExJo5KB3Q-27" style="edgeStyle=orthogonalEdgeStyle;rounded=0;orthogonalLoop=1;jettySize=auto;html=1;entryX=0;entryY=0.5;entryDx=0;entryDy=0;endArrow=diamondThin;endFill=0;startSize=15;endSize=15;" parent="1" edge="1">
          <mxGeometry relative="1" as="geometry">
            <Array as="points" />
            <mxPoint x="168" y="349" as="sourcePoint" />
            <mxPoint x="281" y="349" as="targetPoint" />
          </mxGeometry>
        </mxCell>
        <mxCell id="Uh3EYoIDJxqExJo5KB3Q-58" value="1" style="text;html=1;align=center;verticalAlign=middle;resizable=0;points=[];autosize=1;strokeColor=none;fillColor=none;" parent="1" vertex="1">
          <mxGeometry x="222" y="89" width="20" height="20" as="geometry" />
        </mxCell>
        <mxCell id="Uh3EYoIDJxqExJo5KB3Q-59" value="1" style="text;html=1;align=center;verticalAlign=middle;resizable=0;points=[];autosize=1;strokeColor=none;fillColor=none;" parent="1" vertex="1">
          <mxGeometry x="141" y="187" width="20" height="20" as="geometry" />
        </mxCell>
        <mxCell id="Uh3EYoIDJxqExJo5KB3Q-60" value="1" style="text;html=1;align=center;verticalAlign=middle;resizable=0;points=[];autosize=1;strokeColor=none;fillColor=none;" parent="1" vertex="1">
          <mxGeometry x="81" y="187" width="20" height="20" as="geometry" />
        </mxCell>
        <mxCell id="Uh3EYoIDJxqExJo5KB3Q-61" value="1" style="text;html=1;align=center;verticalAlign=middle;resizable=0;points=[];autosize=1;strokeColor=none;fillColor=none;" parent="1" vertex="1">
          <mxGeometry x="81" y="101" width="20" height="20" as="geometry" />
        </mxCell>
        <mxCell id="Uh3EYoIDJxqExJo5KB3Q-63" value="1" style="text;html=1;align=center;verticalAlign=middle;resizable=0;points=[];autosize=1;strokeColor=none;fillColor=none;" parent="1" vertex="1">
          <mxGeometry x="442" y="151" width="20" height="20" as="geometry" />
        </mxCell>
        <mxCell id="Uh3EYoIDJxqExJo5KB3Q-64" value="0..*" style="text;html=1;align=center;verticalAlign=middle;resizable=0;points=[];autosize=1;strokeColor=none;fillColor=none;" parent="1" vertex="1">
          <mxGeometry x="422" y="299" width="30" height="20" as="geometry" />
        </mxCell>
        <mxCell id="Uh3EYoIDJxqExJo5KB3Q-65" value="1" style="text;html=1;align=center;verticalAlign=middle;resizable=0;points=[];autosize=1;strokeColor=none;fillColor=none;" parent="1" vertex="1">
          <mxGeometry x="191" y="228" width="20" height="20" as="geometry" />
        </mxCell>
        <mxCell id="Uh3EYoIDJxqExJo5KB3Q-66" value="1" style="text;html=1;align=center;verticalAlign=middle;resizable=0;points=[];autosize=1;strokeColor=none;fillColor=none;" parent="1" vertex="1">
          <mxGeometry x="341" y="299" width="20" height="20" as="geometry" />
        </mxCell>
        <mxCell id="Uh3EYoIDJxqExJo5KB3Q-67" value="1" style="text;html=1;align=center;verticalAlign=middle;resizable=0;points=[];autosize=1;strokeColor=none;fillColor=none;" parent="1" vertex="1">
          <mxGeometry x="557" y="231" width="20" height="20" as="geometry" />
        </mxCell>
        <mxCell id="Uh3EYoIDJxqExJo5KB3Q-68" value="1" style="text;html=1;align=center;verticalAlign=middle;resizable=0;points=[];autosize=1;strokeColor=none;fillColor=none;" parent="1" vertex="1">
          <mxGeometry x="560" y="299" width="20" height="20" as="geometry" />
        </mxCell>
        <mxCell id="Uh3EYoIDJxqExJo5KB3Q-73" value="0..1" style="text;html=1;align=center;verticalAlign=middle;resizable=0;points=[];autosize=1;strokeColor=none;fillColor=none;" parent="1" vertex="1">
          <mxGeometry x="628" y="432" width="40" height="20" as="geometry" />
        </mxCell>
        <mxCell id="Uh3EYoIDJxqExJo5KB3Q-74" value="1" style="text;html=1;align=center;verticalAlign=middle;resizable=0;points=[];autosize=1;strokeColor=none;fillColor=none;" parent="1" vertex="1">
          <mxGeometry x="522" y="379" width="20" height="20" as="geometry" />
        </mxCell>
        <mxCell id="Uh3EYoIDJxqExJo5KB3Q-79" value="1" style="text;html=1;align=center;verticalAlign=middle;resizable=0;points=[];autosize=1;strokeColor=none;fillColor=none;" parent="1" vertex="1">
          <mxGeometry x="292" y="421" width="20" height="20" as="geometry" />
        </mxCell>
        <mxCell id="Uh3EYoIDJxqExJo5KB3Q-80" value="1" style="text;html=1;align=center;verticalAlign=middle;resizable=0;points=[];autosize=1;strokeColor=none;fillColor=none;" parent="1" vertex="1">
          <mxGeometry x="215" y="500" width="20" height="20" as="geometry" />
        </mxCell>
        <mxCell id="Uh3EYoIDJxqExJo5KB3Q-82" value="1..*" style="text;html=1;align=center;verticalAlign=middle;resizable=0;points=[];autosize=1;strokeColor=none;fillColor=none;" parent="1" vertex="1">
          <mxGeometry x="437" y="560" width="30" height="20" as="geometry" />
        </mxCell>
        <mxCell id="Uh3EYoIDJxqExJo5KB3Q-83" value="1..*" style="text;html=1;align=center;verticalAlign=middle;resizable=0;points=[];autosize=1;strokeColor=none;fillColor=none;" parent="1" vertex="1">
          <mxGeometry x="437" y="839" width="30" height="20" as="geometry" />
        </mxCell>
        <mxCell id="Uh3EYoIDJxqExJo5KB3Q-100" value="1" style="text;html=1;align=center;verticalAlign=middle;resizable=0;points=[];autosize=1;strokeColor=none;fillColor=none;" parent="1" vertex="1">
          <mxGeometry x="412" y="839" width="20" height="20" as="geometry" />
        </mxCell>
        <mxCell id="Uh3EYoIDJxqExJo5KB3Q-101" value="1" style="text;html=1;align=center;verticalAlign=middle;resizable=0;points=[];autosize=1;strokeColor=none;fillColor=none;" parent="1" vertex="1">
          <mxGeometry x="492" y="542" width="20" height="20" as="geometry" />
        </mxCell>
        <mxCell id="Uh3EYoIDJxqExJo5KB3Q-102" value="1" style="text;html=1;align=center;verticalAlign=middle;resizable=0;points=[];autosize=1;strokeColor=none;fillColor=none;" parent="1" vertex="1">
          <mxGeometry x="641" y="522" width="20" height="20" as="geometry" />
        </mxCell>
        <mxCell id="Uh3EYoIDJxqExJo5KB3Q-103" value="1" style="text;html=1;align=center;verticalAlign=middle;resizable=0;points=[];autosize=1;strokeColor=none;fillColor=none;" parent="1" vertex="1">
          <mxGeometry x="382" y="792" width="20" height="20" as="geometry" />
        </mxCell>
        <mxCell id="Uh3EYoIDJxqExJo5KB3Q-106" value="1" style="text;html=1;align=center;verticalAlign=middle;resizable=0;points=[];autosize=1;strokeColor=none;fillColor=none;" parent="1" vertex="1">
          <mxGeometry x="202" y="685" width="20" height="20" as="geometry" />
        </mxCell>
        <mxCell id="Uh3EYoIDJxqExJo5KB3Q-107" value="1" style="text;html=1;align=center;verticalAlign=middle;resizable=0;points=[];autosize=1;strokeColor=none;fillColor=none;" parent="1" vertex="1">
          <mxGeometry x="132" y="702" width="20" height="20" as="geometry" />
        </mxCell>
        <mxCell id="Uh3EYoIDJxqExJo5KB3Q-108" value="1" style="text;html=1;align=center;verticalAlign=middle;resizable=0;points=[];autosize=1;strokeColor=none;fillColor=none;" parent="1" vertex="1">
          <mxGeometry x="174" y="930" width="20" height="20" as="geometry" />
        </mxCell>
        <mxCell id="Uh3EYoIDJxqExJo5KB3Q-109" value="1" style="text;html=1;align=center;verticalAlign=middle;resizable=0;points=[];autosize=1;strokeColor=none;fillColor=none;" parent="1" vertex="1">
          <mxGeometry x="141" y="931" width="20" height="20" as="geometry" />
        </mxCell>
        <mxCell id="Uh3EYoIDJxqExJo5KB3Q-111" value="1" style="text;html=1;align=center;verticalAlign=middle;resizable=0;points=[];autosize=1;strokeColor=none;fillColor=none;" parent="1" vertex="1">
          <mxGeometry x="344" y="691" width="20" height="20" as="geometry" />
        </mxCell>
        <mxCell id="Uh3EYoIDJxqExJo5KB3Q-112" value="1" style="text;html=1;align=center;verticalAlign=middle;resizable=0;points=[];autosize=1;strokeColor=none;fillColor=none;" parent="1" vertex="1">
          <mxGeometry x="335" y="931" width="20" height="20" as="geometry" />
        </mxCell>
        <mxCell id="Uh3EYoIDJxqExJo5KB3Q-115" value="0..1" style="text;html=1;align=center;verticalAlign=middle;resizable=0;points=[];autosize=1;strokeColor=none;fillColor=none;" parent="1" vertex="1">
          <mxGeometry x="395" y="640" width="40" height="20" as="geometry" />
        </mxCell>
        <mxCell id="Uh3EYoIDJxqExJo5KB3Q-116" value="0..1" style="text;html=1;align=center;verticalAlign=middle;resizable=0;points=[];autosize=1;strokeColor=none;fillColor=none;" parent="1" vertex="1">
          <mxGeometry x="364" y="870" width="40" height="20" as="geometry" />
        </mxCell>
        <mxCell id="Uh3EYoIDJxqExJo5KB3Q-117" value="1" style="text;html=1;align=center;verticalAlign=middle;resizable=0;points=[];autosize=1;strokeColor=none;fillColor=none;" parent="1" vertex="1">
          <mxGeometry x="438" y="640" width="20" height="20" as="geometry" />
        </mxCell>
        <mxCell id="Uh3EYoIDJxqExJo5KB3Q-118" value="1" style="text;html=1;align=center;verticalAlign=middle;resizable=0;points=[];autosize=1;strokeColor=none;fillColor=none;" parent="1" vertex="1">
          <mxGeometry x="432" y="379" width="20" height="20" as="geometry" />
        </mxCell>
        <mxCell id="Uh3EYoIDJxqExJo5KB3Q-119" value="0..*" style="text;html=1;align=center;verticalAlign=middle;resizable=0;points=[];autosize=1;strokeColor=none;fillColor=none;" parent="1" vertex="1">
          <mxGeometry x="647" y="763" width="30" height="20" as="geometry" />
        </mxCell>
        <mxCell id="Uh3EYoIDJxqExJo5KB3Q-121" value="1..*" style="text;html=1;align=center;verticalAlign=middle;resizable=0;points=[];autosize=1;strokeColor=none;fillColor=none;" parent="1" vertex="1">
          <mxGeometry x="462" y="640" width="30" height="20" as="geometry" />
        </mxCell>
        <mxCell id="Uh3EYoIDJxqExJo5KB3Q-122" value="1" style="text;html=1;align=center;verticalAlign=middle;resizable=0;points=[];autosize=1;strokeColor=none;fillColor=none;" parent="1" vertex="1">
          <mxGeometry x="543" y="702" width="20" height="20" as="geometry" />
        </mxCell>
        <mxCell id="Uh3EYoIDJxqExJo5KB3Q-123" value="1..*" style="text;html=1;align=center;verticalAlign=middle;resizable=0;points=[];autosize=1;strokeColor=none;fillColor=none;" parent="1" vertex="1">
          <mxGeometry x="535" y="608" width="30" height="20" as="geometry" />
        </mxCell>
        <mxCell id="Uh3EYoIDJxqExJo5KB3Q-125" value="1" style="text;html=1;align=center;verticalAlign=middle;resizable=0;points=[];autosize=1;strokeColor=none;fillColor=none;" parent="1" vertex="1">
          <mxGeometry x="534" y="593" width="20" height="20" as="geometry" />
        </mxCell>
        <mxCell id="Uh3EYoIDJxqExJo5KB3Q-129" value="1" style="text;html=1;align=center;verticalAlign=middle;resizable=0;points=[];autosize=1;strokeColor=none;fillColor=none;" parent="1" vertex="1">
          <mxGeometry x="661" y="330" width="20" height="20" as="geometry" />
        </mxCell>
        <mxCell id="Uh3EYoIDJxqExJo5KB3Q-130" value="1" style="text;html=1;align=center;verticalAlign=middle;resizable=0;points=[];autosize=1;strokeColor=none;fillColor=none;" parent="1" vertex="1">
          <mxGeometry x="242" y="330" width="20" height="20" as="geometry" />
        </mxCell>
        <mxCell id="Uh3EYoIDJxqExJo5KB3Q-135" value="1" style="text;html=1;align=center;verticalAlign=middle;resizable=0;points=[];autosize=1;strokeColor=none;fillColor=none;" parent="1" vertex="1">
          <mxGeometry x="710" y="871" width="20" height="20" as="geometry" />
        </mxCell>
        <mxCell id="Uh3EYoIDJxqExJo5KB3Q-137" value="1" style="text;html=1;align=center;verticalAlign=middle;resizable=0;points=[];autosize=1;strokeColor=none;fillColor=none;" parent="1" vertex="1">
          <mxGeometry x="710" y="811" width="20" height="20" as="geometry" />
        </mxCell>
        <mxCell id="Uh3EYoIDJxqExJo5KB3Q-141" value="1..*" style="text;html=1;align=center;verticalAlign=middle;resizable=0;points=[];autosize=1;strokeColor=none;fillColor=none;" parent="1" vertex="1">
          <mxGeometry x="182" y="325" width="40" height="30" as="geometry" />
        </mxCell>
        <mxCell id="Uh3EYoIDJxqExJo5KB3Q-145" value="1" style="text;html=1;align=center;verticalAlign=middle;resizable=0;points=[];autosize=1;strokeColor=none;fillColor=none;" parent="1" vertex="1">
          <mxGeometry x="1280" y="129" width="20" height="20" as="geometry" />
        </mxCell>
        <mxCell id="Uh3EYoIDJxqExJo5KB3Q-146" value="1" style="text;html=1;align=center;verticalAlign=middle;resizable=0;points=[];autosize=1;strokeColor=none;fillColor=none;" parent="1" vertex="1">
          <mxGeometry x="1380" y="171" width="20" height="20" as="geometry" />
        </mxCell>
        <mxCell id="Uh3EYoIDJxqExJo5KB3Q-152" value="0..*" style="text;html=1;align=center;verticalAlign=middle;resizable=0;points=[];autosize=1;strokeColor=none;fillColor=none;" parent="1" vertex="1">
          <mxGeometry x="1132" y="100" width="30" height="20" as="geometry" />
        </mxCell>
        <mxCell id="Uh3EYoIDJxqExJo5KB3Q-153" value="1..*" style="text;html=1;align=center;verticalAlign=middle;resizable=0;points=[];autosize=1;strokeColor=none;fillColor=none;" parent="1" vertex="1">
          <mxGeometry x="1127" y="29" width="30" height="20" as="geometry" />
        </mxCell>
        <mxCell id="Uh3EYoIDJxqExJo5KB3Q-154" value="1" style="text;html=1;align=center;verticalAlign=middle;resizable=0;points=[];autosize=1;strokeColor=none;fillColor=none;" parent="1" vertex="1">
          <mxGeometry x="1250" y="29" width="20" height="20" as="geometry" />
        </mxCell>
        <mxCell id="Uh3EYoIDJxqExJo5KB3Q-155" value="0..*" style="text;html=1;align=center;verticalAlign=middle;resizable=0;points=[];autosize=1;strokeColor=none;fillColor=none;" parent="1" vertex="1">
          <mxGeometry x="1196" y="99" width="30" height="20" as="geometry" />
        </mxCell>
        <mxCell id="Uh3EYoIDJxqExJo5KB3Q-156" value="1" style="text;html=1;align=center;verticalAlign=middle;resizable=0;points=[];autosize=1;strokeColor=none;fillColor=none;" parent="1" vertex="1">
          <mxGeometry x="1306" y="77" width="20" height="20" as="geometry" />
        </mxCell>
        <mxCell id="Uh3EYoIDJxqExJo5KB3Q-157" value="1" style="text;html=1;align=center;verticalAlign=middle;resizable=0;points=[];autosize=1;strokeColor=none;fillColor=none;" parent="1" vertex="1">
          <mxGeometry x="1380" y="89" width="20" height="20" as="geometry" />
        </mxCell>
        <mxCell id="Uh3EYoIDJxqExJo5KB3Q-158" value="1" style="text;html=1;align=center;verticalAlign=middle;resizable=0;points=[];autosize=1;strokeColor=none;fillColor=none;" parent="1" vertex="1">
          <mxGeometry x="1310" y="269" width="20" height="20" as="geometry" />
        </mxCell>
        <mxCell id="Uh3EYoIDJxqExJo5KB3Q-159" value="1" style="text;html=1;align=center;verticalAlign=middle;resizable=0;points=[];autosize=1;strokeColor=none;fillColor=none;" parent="1" vertex="1">
          <mxGeometry x="1380" y="279" width="20" height="20" as="geometry" />
        </mxCell>
        <mxCell id="Uh3EYoIDJxqExJo5KB3Q-160" value="1..2" style="text;html=1;align=center;verticalAlign=middle;resizable=0;points=[];autosize=1;strokeColor=none;fillColor=none;" parent="1" vertex="1">
          <mxGeometry x="1290" y="191" width="40" height="20" as="geometry" />
        </mxCell>
        <mxCell id="Uh3EYoIDJxqExJo5KB3Q-161" value="0..1" style="text;html=1;align=center;verticalAlign=middle;resizable=0;points=[];autosize=1;strokeColor=none;fillColor=none;" parent="1" vertex="1">
          <mxGeometry x="1270" y="149" width="40" height="20" as="geometry" />
        </mxCell>
        <mxCell id="Uh3EYoIDJxqExJo5KB3Q-163" value="1" style="text;html=1;align=center;verticalAlign=middle;resizable=0;points=[];autosize=1;strokeColor=none;fillColor=none;" parent="1" vertex="1">
          <mxGeometry x="1090" y="162.5" width="20" height="20" as="geometry" />
        </mxCell>
        <mxCell id="Uh3EYoIDJxqExJo5KB3Q-164" value="1" style="text;html=1;align=center;verticalAlign=middle;resizable=0;points=[];autosize=1;strokeColor=none;fillColor=none;" parent="1" vertex="1">
          <mxGeometry x="1035" y="242.5" width="20" height="20" as="geometry" />
        </mxCell>
        <mxCell id="Uh3EYoIDJxqExJo5KB3Q-165" value="1" style="text;html=1;align=center;verticalAlign=middle;resizable=0;points=[];autosize=1;strokeColor=none;fillColor=none;" parent="1" vertex="1">
          <mxGeometry x="990" y="242.5" width="20" height="20" as="geometry" />
        </mxCell>
        <mxCell id="Uh3EYoIDJxqExJo5KB3Q-166" value="1" style="text;html=1;align=center;verticalAlign=middle;resizable=0;points=[];autosize=1;strokeColor=none;fillColor=none;" parent="1" vertex="1">
          <mxGeometry x="990" y="29" width="20" height="20" as="geometry" />
        </mxCell>
        <mxCell id="Uh3EYoIDJxqExJo5KB3Q-167" value="1" style="text;html=1;align=center;verticalAlign=middle;resizable=0;points=[];autosize=1;strokeColor=none;fillColor=none;" parent="1" vertex="1">
          <mxGeometry x="933" y="29" width="20" height="20" as="geometry" />
        </mxCell>
        <mxCell id="Uh3EYoIDJxqExJo5KB3Q-169" value="1" style="text;html=1;align=center;verticalAlign=middle;resizable=0;points=[];autosize=1;strokeColor=none;fillColor=none;" parent="1" vertex="1">
          <mxGeometry x="1107" y="125.5" width="20" height="20" as="geometry" />
        </mxCell>
        <mxCell id="Uh3EYoIDJxqExJo5KB3Q-170" value="0..*" style="text;html=1;align=center;verticalAlign=middle;resizable=0;points=[];autosize=1;strokeColor=none;fillColor=none;" parent="1" vertex="1">
          <mxGeometry x="1032" y="162.5" width="30" height="20" as="geometry" />
        </mxCell>
        <mxCell id="Uh3EYoIDJxqExJo5KB3Q-171" value="1" style="text;html=1;align=center;verticalAlign=middle;resizable=0;points=[];autosize=1;strokeColor=none;fillColor=none;" parent="1" vertex="1">
          <mxGeometry x="930" y="102.5" width="20" height="20" as="geometry" />
        </mxCell>
        <mxCell id="X1lpx6OlWuuj1t17hR-o-1" value="0..1" style="text;html=1;align=center;verticalAlign=middle;resizable=0;points=[];autosize=1;strokeColor=none;fillColor=none;" parent="1" vertex="1">
          <mxGeometry x="331" y="381" width="40" height="20" as="geometry" />
        </mxCell>
        <mxCell id="BEIevK5eTRCsn4OwJl81-37" value="Operation" style="rounded=0;whiteSpace=wrap;html=1;fillColor=#dae8fc;strokeColor=#6c8ebf;" parent="1" vertex="1">
          <mxGeometry x="70" y="319" width="120" height="60" as="geometry" />
        </mxCell>
        <mxCell id="MNavH0PL4GnTqmvp7ZRP-4" style="edgeStyle=orthogonalEdgeStyle;rounded=0;orthogonalLoop=1;jettySize=auto;html=1;endArrow=diamondThin;endFill=1;startSize=15;endSize=15;exitX=0.75;exitY=1;exitDx=0;exitDy=0;entryX=1;entryY=0.5;entryDx=0;entryDy=0;" parent="1" source="zRkCe7xuiFq9xMNUNCL5-53" target="zRkCe7xuiFq9xMNUNCL5-30" edge="1">
          <mxGeometry relative="1" as="geometry">
            <mxPoint x="1310.27" y="204.5" as="sourcePoint" />
            <mxPoint x="1031" y="610" as="targetPoint" />
            <Array as="points">
              <mxPoint x="1233" y="610" />
            </Array>
          </mxGeometry>
        </mxCell>
        <mxCell id="dV2TsJkEcx7WfPnMc0T7-1" value="0..*" style="text;html=1;align=center;verticalAlign=middle;resizable=0;points=[];autosize=1;strokeColor=none;fillColor=none;" parent="1" vertex="1">
          <mxGeometry x="1172" y="180" width="30" height="20" as="geometry" />
        </mxCell>
        <mxCell id="dV2TsJkEcx7WfPnMc0T7-2" value="0..*" style="text;html=1;align=center;verticalAlign=middle;resizable=0;points=[];autosize=1;strokeColor=none;fillColor=none;" parent="1" vertex="1">
          <mxGeometry x="1235" y="182.5" width="30" height="20" as="geometry" />
        </mxCell>
      </root>
    </mxGraphModel>
  </diagram>
  <diagram id="xFgc3K8RV5vdxy0UWeiU" name="Página-5">
    <mxGraphModel dx="1674" dy="756" grid="1" gridSize="10" guides="1" tooltips="1" connect="1" arrows="1" fold="1" page="1" pageScale="1" pageWidth="827" pageHeight="1169" math="0" shadow="0">
      <root>
        <mxCell id="0" />
        <mxCell id="1" parent="0" />
        <mxCell id="9wyFWbD6kElOJQ-wUGBs-9" style="edgeStyle=orthogonalEdgeStyle;rounded=0;orthogonalLoop=1;jettySize=auto;html=1;entryX=0;entryY=0.5;entryDx=0;entryDy=0;exitX=1;exitY=0.5;exitDx=0;exitDy=0;" parent="1" source="9wyFWbD6kElOJQ-wUGBs-4" target="9wyFWbD6kElOJQ-wUGBs-2" edge="1">
          <mxGeometry relative="1" as="geometry" />
        </mxCell>
        <mxCell id="9wyFWbD6kElOJQ-wUGBs-10" value="Apply" style="edgeLabel;html=1;align=center;verticalAlign=middle;resizable=0;points=[];" parent="9wyFWbD6kElOJQ-wUGBs-9" vertex="1" connectable="0">
          <mxGeometry x="-0.08" relative="1" as="geometry">
            <mxPoint as="offset" />
          </mxGeometry>
        </mxCell>
        <mxCell id="9wyFWbD6kElOJQ-wUGBs-1" value="Operation&lt;br&gt;1" style="ellipse;whiteSpace=wrap;html=1;aspect=fixed;" parent="1" vertex="1">
          <mxGeometry x="180" y="360" width="80" height="80" as="geometry" />
        </mxCell>
        <mxCell id="9wyFWbD6kElOJQ-wUGBs-24" style="edgeStyle=orthogonalEdgeStyle;rounded=0;orthogonalLoop=1;jettySize=auto;html=1;" parent="1" source="9wyFWbD6kElOJQ-wUGBs-2" target="9wyFWbD6kElOJQ-wUGBs-1" edge="1">
          <mxGeometry relative="1" as="geometry" />
        </mxCell>
        <mxCell id="9wyFWbD6kElOJQ-wUGBs-26" value="genera" style="edgeLabel;html=1;align=center;verticalAlign=middle;resizable=0;points=[];" parent="9wyFWbD6kElOJQ-wUGBs-24" vertex="1" connectable="0">
          <mxGeometry x="-0.08" y="1" relative="1" as="geometry">
            <mxPoint as="offset" />
          </mxGeometry>
        </mxCell>
        <mxCell id="9wyFWbD6kElOJQ-wUGBs-28" style="edgeStyle=orthogonalEdgeStyle;rounded=0;orthogonalLoop=1;jettySize=auto;html=1;entryX=0;entryY=0.5;entryDx=0;entryDy=0;exitX=1;exitY=0.5;exitDx=0;exitDy=0;" parent="1" source="9wyFWbD6kElOJQ-wUGBs-2" target="9wyFWbD6kElOJQ-wUGBs-22" edge="1">
          <mxGeometry relative="1" as="geometry" />
        </mxCell>
        <mxCell id="9wyFWbD6kElOJQ-wUGBs-30" value="transforma" style="edgeLabel;html=1;align=center;verticalAlign=middle;resizable=0;points=[];" parent="9wyFWbD6kElOJQ-wUGBs-28" vertex="1" connectable="0">
          <mxGeometry x="-0.1889" y="2" relative="1" as="geometry">
            <mxPoint as="offset" />
          </mxGeometry>
        </mxCell>
        <mxCell id="9wyFWbD6kElOJQ-wUGBs-38" style="edgeStyle=orthogonalEdgeStyle;rounded=0;orthogonalLoop=1;jettySize=auto;html=1;entryX=0;entryY=0.5;entryDx=0;entryDy=0;" parent="1" source="9wyFWbD6kElOJQ-wUGBs-2" target="9wyFWbD6kElOJQ-wUGBs-14" edge="1">
          <mxGeometry relative="1" as="geometry">
            <Array as="points">
              <mxPoint x="220" y="190" />
            </Array>
          </mxGeometry>
        </mxCell>
        <mxCell id="9wyFWbD6kElOJQ-wUGBs-39" value="hacia" style="edgeLabel;html=1;align=center;verticalAlign=middle;resizable=0;points=[];" parent="9wyFWbD6kElOJQ-wUGBs-38" vertex="1" connectable="0">
          <mxGeometry x="0.1857" y="2" relative="1" as="geometry">
            <mxPoint as="offset" />
          </mxGeometry>
        </mxCell>
        <mxCell id="9wyFWbD6kElOJQ-wUGBs-2" value="Transition" style="ellipse;whiteSpace=wrap;html=1;aspect=fixed;" parent="1" vertex="1">
          <mxGeometry x="190" y="250" width="60" height="60" as="geometry" />
        </mxCell>
        <mxCell id="9wyFWbD6kElOJQ-wUGBs-3" value="State" style="ellipse;whiteSpace=wrap;html=1;aspect=fixed;" parent="1" vertex="1">
          <mxGeometry x="600" y="160" width="60" height="60" as="geometry" />
        </mxCell>
        <mxCell id="9wyFWbD6kElOJQ-wUGBs-4" value="INICIO" style="ellipse;whiteSpace=wrap;html=1;aspect=fixed;" parent="1" vertex="1">
          <mxGeometry x="40" y="240" width="80" height="80" as="geometry" />
        </mxCell>
        <mxCell id="9wyFWbD6kElOJQ-wUGBs-5" value="" style="shape=flexArrow;endArrow=classic;html=1;rounded=0;" parent="1" edge="1">
          <mxGeometry width="50" height="50" relative="1" as="geometry">
            <mxPoint x="120" y="490" as="sourcePoint" />
            <mxPoint x="760" y="490" as="targetPoint" />
          </mxGeometry>
        </mxCell>
        <mxCell id="9wyFWbD6kElOJQ-wUGBs-11" style="edgeStyle=orthogonalEdgeStyle;rounded=0;orthogonalLoop=1;jettySize=auto;html=1;entryX=0;entryY=0.5;entryDx=0;entryDy=0;exitX=1;exitY=0.5;exitDx=0;exitDy=0;" parent="1" source="9wyFWbD6kElOJQ-wUGBs-22" target="9wyFWbD6kElOJQ-wUGBs-13" edge="1">
          <mxGeometry relative="1" as="geometry" />
        </mxCell>
        <mxCell id="9wyFWbD6kElOJQ-wUGBs-12" value="Apply" style="edgeLabel;html=1;align=center;verticalAlign=middle;resizable=0;points=[];" parent="9wyFWbD6kElOJQ-wUGBs-11" vertex="1" connectable="0">
          <mxGeometry x="-0.15" y="1" relative="1" as="geometry">
            <mxPoint as="offset" />
          </mxGeometry>
        </mxCell>
        <mxCell id="9wyFWbD6kElOJQ-wUGBs-18" style="edgeStyle=orthogonalEdgeStyle;rounded=0;orthogonalLoop=1;jettySize=auto;html=1;exitX=0.5;exitY=0;exitDx=0;exitDy=0;entryX=1;entryY=0.5;entryDx=0;entryDy=0;" parent="1" source="9wyFWbD6kElOJQ-wUGBs-22" target="9wyFWbD6kElOJQ-wUGBs-14" edge="1">
          <mxGeometry relative="1" as="geometry" />
        </mxCell>
        <mxCell id="9wyFWbD6kElOJQ-wUGBs-19" value="tiene" style="edgeLabel;html=1;align=center;verticalAlign=middle;resizable=0;points=[];" parent="9wyFWbD6kElOJQ-wUGBs-18" vertex="1" connectable="0">
          <mxGeometry x="-0.125" y="3" relative="1" as="geometry">
            <mxPoint as="offset" />
          </mxGeometry>
        </mxCell>
        <mxCell id="9wyFWbD6kElOJQ-wUGBs-6" value="Operation&lt;br&gt;2" style="ellipse;whiteSpace=wrap;html=1;aspect=fixed;" parent="1" vertex="1">
          <mxGeometry x="500" y="360" width="80" height="80" as="geometry" />
        </mxCell>
        <mxCell id="9wyFWbD6kElOJQ-wUGBs-20" style="edgeStyle=orthogonalEdgeStyle;rounded=0;orthogonalLoop=1;jettySize=auto;html=1;entryX=1;entryY=0.5;entryDx=0;entryDy=0;exitX=0.5;exitY=0;exitDx=0;exitDy=0;" parent="1" source="9wyFWbD6kElOJQ-wUGBs-23" target="9wyFWbD6kElOJQ-wUGBs-3" edge="1">
          <mxGeometry relative="1" as="geometry" />
        </mxCell>
        <mxCell id="9wyFWbD6kElOJQ-wUGBs-21" value="tiene" style="edgeLabel;html=1;align=center;verticalAlign=middle;resizable=0;points=[];" parent="9wyFWbD6kElOJQ-wUGBs-20" vertex="1" connectable="0">
          <mxGeometry x="-0.075" y="3" relative="1" as="geometry">
            <mxPoint as="offset" />
          </mxGeometry>
        </mxCell>
        <mxCell id="9wyFWbD6kElOJQ-wUGBs-25" style="edgeStyle=orthogonalEdgeStyle;rounded=0;orthogonalLoop=1;jettySize=auto;html=1;entryX=0.5;entryY=0;entryDx=0;entryDy=0;" parent="1" source="9wyFWbD6kElOJQ-wUGBs-13" target="9wyFWbD6kElOJQ-wUGBs-6" edge="1">
          <mxGeometry relative="1" as="geometry" />
        </mxCell>
        <mxCell id="9wyFWbD6kElOJQ-wUGBs-27" value="genera" style="edgeLabel;html=1;align=center;verticalAlign=middle;resizable=0;points=[];" parent="9wyFWbD6kElOJQ-wUGBs-25" vertex="1" connectable="0">
          <mxGeometry x="-0.04" y="-3" relative="1" as="geometry">
            <mxPoint as="offset" />
          </mxGeometry>
        </mxCell>
        <mxCell id="9wyFWbD6kElOJQ-wUGBs-29" style="edgeStyle=orthogonalEdgeStyle;rounded=0;orthogonalLoop=1;jettySize=auto;html=1;entryX=0;entryY=0.5;entryDx=0;entryDy=0;exitX=1;exitY=0.5;exitDx=0;exitDy=0;" parent="1" source="9wyFWbD6kElOJQ-wUGBs-13" target="9wyFWbD6kElOJQ-wUGBs-23" edge="1">
          <mxGeometry relative="1" as="geometry" />
        </mxCell>
        <mxCell id="9wyFWbD6kElOJQ-wUGBs-31" value="transforma" style="edgeLabel;html=1;align=center;verticalAlign=middle;resizable=0;points=[];" parent="9wyFWbD6kElOJQ-wUGBs-29" vertex="1" connectable="0">
          <mxGeometry x="-0.1778" y="3" relative="1" as="geometry">
            <mxPoint as="offset" />
          </mxGeometry>
        </mxCell>
        <mxCell id="9wyFWbD6kElOJQ-wUGBs-40" style="edgeStyle=orthogonalEdgeStyle;rounded=0;orthogonalLoop=1;jettySize=auto;html=1;entryX=0;entryY=0.5;entryDx=0;entryDy=0;" parent="1" source="9wyFWbD6kElOJQ-wUGBs-13" target="9wyFWbD6kElOJQ-wUGBs-3" edge="1">
          <mxGeometry relative="1" as="geometry">
            <Array as="points">
              <mxPoint x="540" y="190" />
            </Array>
          </mxGeometry>
        </mxCell>
        <mxCell id="9wyFWbD6kElOJQ-wUGBs-41" value="hacia" style="edgeLabel;html=1;align=center;verticalAlign=middle;resizable=0;points=[];" parent="9wyFWbD6kElOJQ-wUGBs-40" vertex="1" connectable="0">
          <mxGeometry x="0.2143" y="2" relative="1" as="geometry">
            <mxPoint as="offset" />
          </mxGeometry>
        </mxCell>
        <mxCell id="9wyFWbD6kElOJQ-wUGBs-13" value="Transition" style="ellipse;whiteSpace=wrap;html=1;aspect=fixed;" parent="1" vertex="1">
          <mxGeometry x="510" y="250" width="60" height="60" as="geometry" />
        </mxCell>
        <mxCell id="9wyFWbD6kElOJQ-wUGBs-14" value="State" style="ellipse;whiteSpace=wrap;html=1;aspect=fixed;" parent="1" vertex="1">
          <mxGeometry x="280" y="160" width="60" height="60" as="geometry" />
        </mxCell>
        <mxCell id="9wyFWbD6kElOJQ-wUGBs-33" style="edgeStyle=orthogonalEdgeStyle;rounded=0;orthogonalLoop=1;jettySize=auto;html=1;entryX=1;entryY=0.5;entryDx=0;entryDy=0;exitX=0.5;exitY=1;exitDx=0;exitDy=0;" parent="1" source="9wyFWbD6kElOJQ-wUGBs-22" target="9wyFWbD6kElOJQ-wUGBs-1" edge="1">
          <mxGeometry relative="1" as="geometry">
            <Array as="points">
              <mxPoint x="400" y="400" />
            </Array>
          </mxGeometry>
        </mxCell>
        <mxCell id="9wyFWbD6kElOJQ-wUGBs-34" value="generado por" style="edgeLabel;html=1;align=center;verticalAlign=middle;resizable=0;points=[];" parent="9wyFWbD6kElOJQ-wUGBs-33" vertex="1" connectable="0">
          <mxGeometry x="-0.0619" y="1" relative="1" as="geometry">
            <mxPoint as="offset" />
          </mxGeometry>
        </mxCell>
        <mxCell id="9wyFWbD6kElOJQ-wUGBs-22" value="Structure&lt;br&gt;A" style="ellipse;whiteSpace=wrap;html=1;aspect=fixed;" parent="1" vertex="1">
          <mxGeometry x="360" y="240" width="80" height="80" as="geometry" />
        </mxCell>
        <mxCell id="9wyFWbD6kElOJQ-wUGBs-35" style="edgeStyle=orthogonalEdgeStyle;rounded=0;orthogonalLoop=1;jettySize=auto;html=1;entryX=1;entryY=0.5;entryDx=0;entryDy=0;exitX=0.5;exitY=1;exitDx=0;exitDy=0;" parent="1" source="9wyFWbD6kElOJQ-wUGBs-23" target="9wyFWbD6kElOJQ-wUGBs-6" edge="1">
          <mxGeometry relative="1" as="geometry" />
        </mxCell>
        <mxCell id="9wyFWbD6kElOJQ-wUGBs-36" value="generado por" style="edgeLabel;html=1;align=center;verticalAlign=middle;resizable=0;points=[];" parent="9wyFWbD6kElOJQ-wUGBs-35" vertex="1" connectable="0">
          <mxGeometry x="-0.0815" y="-3" relative="1" as="geometry">
            <mxPoint as="offset" />
          </mxGeometry>
        </mxCell>
        <mxCell id="9wyFWbD6kElOJQ-wUGBs-23" value="Structure&lt;br&gt;B" style="ellipse;whiteSpace=wrap;html=1;aspect=fixed;" parent="1" vertex="1">
          <mxGeometry x="680" y="240" width="80" height="80" as="geometry" />
        </mxCell>
      </root>
    </mxGraphModel>
  </diagram>
  <diagram id="zON6iqa62rAP7J3N0Lbp" name="Página-6">
    <mxGraphModel dx="1674" dy="756" grid="1" gridSize="10" guides="1" tooltips="1" connect="1" arrows="1" fold="1" page="1" pageScale="1" pageWidth="827" pageHeight="1169" math="0" shadow="0">
      <root>
        <mxCell id="0" />
        <mxCell id="1" parent="0" />
        <mxCell id="YXTWCQ9cUPDG9p8AuI5y-1" style="edgeStyle=orthogonalEdgeStyle;rounded=0;orthogonalLoop=1;jettySize=auto;html=1;entryX=0.5;entryY=1;entryDx=0;entryDy=0;endArrow=diamondThin;endFill=0;startSize=15;endSize=15;exitX=0.5;exitY=0;exitDx=0;exitDy=0;" parent="1" source="YXTWCQ9cUPDG9p8AuI5y-2" target="YXTWCQ9cUPDG9p8AuI5y-29" edge="1">
          <mxGeometry relative="1" as="geometry">
            <Array as="points">
              <mxPoint x="130" y="568" />
            </Array>
          </mxGeometry>
        </mxCell>
        <mxCell id="YXTWCQ9cUPDG9p8AuI5y-2" value="CDE" style="rounded=0;whiteSpace=wrap;html=1;verticalAlign=middle;fillColor=#fff2cc;strokeColor=#d6b656;" parent="1" vertex="1">
          <mxGeometry x="72" y="568" width="120" height="60" as="geometry" />
        </mxCell>
        <mxCell id="YXTWCQ9cUPDG9p8AuI5y-5" style="edgeStyle=orthogonalEdgeStyle;rounded=0;orthogonalLoop=1;jettySize=auto;html=1;entryX=0.75;entryY=1;entryDx=0;entryDy=0;endArrow=diamondThin;endFill=0;startSize=15;endSize=15;" parent="1" source="YXTWCQ9cUPDG9p8AuI5y-6" target="YXTWCQ9cUPDG9p8AuI5y-25" edge="1">
          <mxGeometry relative="1" as="geometry" />
        </mxCell>
        <mxCell id="YXTWCQ9cUPDG9p8AuI5y-6" value="Plan" style="rounded=0;whiteSpace=wrap;html=1;fillColor=#dae8fc;strokeColor=#6c8ebf;" parent="1" vertex="1">
          <mxGeometry x="484" y="725" width="120" height="60" as="geometry" />
        </mxCell>
        <mxCell id="YXTWCQ9cUPDG9p8AuI5y-7" style="edgeStyle=orthogonalEdgeStyle;rounded=0;orthogonalLoop=1;jettySize=auto;html=1;entryX=0.5;entryY=0;entryDx=0;entryDy=0;endArrow=diamondThin;endFill=0;startSize=15;endSize=15;" parent="1" source="YXTWCQ9cUPDG9p8AuI5y-8" target="YXTWCQ9cUPDG9p8AuI5y-142" edge="1">
          <mxGeometry relative="1" as="geometry" />
        </mxCell>
        <mxCell id="YXTWCQ9cUPDG9p8AuI5y-8" value="Collector" style="rounded=0;whiteSpace=wrap;html=1;fillColor=#dae8fc;strokeColor=#6c8ebf;" parent="1" vertex="1">
          <mxGeometry x="1320" y="121" width="120" height="60" as="geometry" />
        </mxCell>
        <mxCell id="YXTWCQ9cUPDG9p8AuI5y-9" style="edgeStyle=orthogonalEdgeStyle;rounded=0;orthogonalLoop=1;jettySize=auto;html=1;entryX=0.25;entryY=0;entryDx=0;entryDy=0;endArrow=diamondThin;endFill=0;startSize=15;endSize=15;exitX=0.5;exitY=1;exitDx=0;exitDy=0;" parent="1" source="YXTWCQ9cUPDG9p8AuI5y-10" target="YXTWCQ9cUPDG9p8AuI5y-12" edge="1">
          <mxGeometry relative="1" as="geometry">
            <Array as="points">
              <mxPoint x="91" y="170" />
              <mxPoint x="101" y="170" />
            </Array>
          </mxGeometry>
        </mxCell>
        <mxCell id="YXTWCQ9cUPDG9p8AuI5y-10" value="CDE&lt;br&gt;(Configurable&lt;br&gt;Data Entity)" style="rounded=0;whiteSpace=wrap;html=1;verticalAlign=middle;fillColor=#fff2cc;strokeColor=#d6b656;" parent="1" vertex="1">
          <mxGeometry x="31" y="80" width="120" height="60" as="geometry" />
        </mxCell>
        <mxCell id="YXTWCQ9cUPDG9p8AuI5y-11" style="edgeStyle=orthogonalEdgeStyle;rounded=0;orthogonalLoop=1;jettySize=auto;html=1;entryX=0.25;entryY=0;entryDx=0;entryDy=0;endArrow=diamondThin;endFill=0;startSize=15;endSize=15;" parent="1" source="YXTWCQ9cUPDG9p8AuI5y-12" target="YXTWCQ9cUPDG9p8AuI5y-23" edge="1">
          <mxGeometry relative="1" as="geometry">
            <mxPoint x="231" y="307" as="targetPoint" />
          </mxGeometry>
        </mxCell>
        <mxCell id="YXTWCQ9cUPDG9p8AuI5y-12" value="Product" style="rounded=0;whiteSpace=wrap;html=1;fillColor=#dae8fc;strokeColor=#6c8ebf;" parent="1" vertex="1">
          <mxGeometry x="71" y="218" width="120" height="60" as="geometry" />
        </mxCell>
        <mxCell id="YXTWCQ9cUPDG9p8AuI5y-13" style="edgeStyle=orthogonalEdgeStyle;rounded=0;orthogonalLoop=1;jettySize=auto;html=1;entryX=0.75;entryY=1;entryDx=0;entryDy=0;endArrow=diamondThin;endFill=1;startSize=15;endSize=15;exitX=0;exitY=0.25;exitDx=0;exitDy=0;" parent="1" source="YXTWCQ9cUPDG9p8AuI5y-14" target="YXTWCQ9cUPDG9p8AuI5y-23" edge="1">
          <mxGeometry relative="1" as="geometry">
            <Array as="points">
              <mxPoint x="552" y="453" />
            </Array>
          </mxGeometry>
        </mxCell>
        <mxCell id="YXTWCQ9cUPDG9p8AuI5y-14" value="FinancialPlan" style="rounded=0;whiteSpace=wrap;html=1;fillColor=#dae8fc;strokeColor=#6c8ebf;" parent="1" vertex="1">
          <mxGeometry x="661" y="421" width="120" height="60" as="geometry" />
        </mxCell>
        <mxCell id="YXTWCQ9cUPDG9p8AuI5y-15" style="edgeStyle=orthogonalEdgeStyle;rounded=0;orthogonalLoop=1;jettySize=auto;html=1;entryX=0.75;entryY=0;entryDx=0;entryDy=0;endArrow=diamondThin;endFill=0;startSize=15;endSize=15;exitX=0.5;exitY=1;exitDx=0;exitDy=0;" parent="1" source="YXTWCQ9cUPDG9p8AuI5y-16" target="YXTWCQ9cUPDG9p8AuI5y-23" edge="1">
          <mxGeometry relative="1" as="geometry">
            <Array as="points">
              <mxPoint x="552" y="241" />
            </Array>
          </mxGeometry>
        </mxCell>
        <mxCell id="YXTWCQ9cUPDG9p8AuI5y-16" value="CDE" style="rounded=0;whiteSpace=wrap;html=1;verticalAlign=middle;fillColor=#fff2cc;strokeColor=#d6b656;" parent="1" vertex="1">
          <mxGeometry x="492" y="170" width="120" height="60" as="geometry" />
        </mxCell>
        <mxCell id="YXTWCQ9cUPDG9p8AuI5y-19" style="edgeStyle=orthogonalEdgeStyle;rounded=0;orthogonalLoop=1;jettySize=auto;html=1;entryX=0.25;entryY=0;entryDx=0;entryDy=0;endArrow=diamondThin;endFill=0;startSize=15;endSize=15;exitX=1;exitY=0.5;exitDx=0;exitDy=0;" parent="1" source="YXTWCQ9cUPDG9p8AuI5y-20" target="YXTWCQ9cUPDG9p8AuI5y-27" edge="1">
          <mxGeometry relative="1" as="geometry">
            <Array as="points">
              <mxPoint x="319" y="688" />
            </Array>
          </mxGeometry>
        </mxCell>
        <mxCell id="YXTWCQ9cUPDG9p8AuI5y-20" value="CDE" style="rounded=0;whiteSpace=wrap;html=1;verticalAlign=middle;fillColor=#fff2cc;strokeColor=#d6b656;" parent="1" vertex="1">
          <mxGeometry x="140" y="658" width="120" height="60" as="geometry" />
        </mxCell>
        <mxCell id="YXTWCQ9cUPDG9p8AuI5y-21" style="edgeStyle=orthogonalEdgeStyle;rounded=0;orthogonalLoop=1;jettySize=auto;html=1;entryX=0.5;entryY=1;entryDx=0;entryDy=0;endArrow=diamondThin;endFill=0;startSize=15;endSize=15;exitX=0.5;exitY=0;exitDx=0;exitDy=0;" parent="1" source="YXTWCQ9cUPDG9p8AuI5y-22" target="YXTWCQ9cUPDG9p8AuI5y-57" edge="1">
          <mxGeometry relative="1" as="geometry">
            <Array as="points">
              <mxPoint x="1026" y="550" />
              <mxPoint x="1026" y="550" />
            </Array>
            <mxPoint x="1590.7499999999995" y="208.99999999999977" as="targetPoint" />
          </mxGeometry>
        </mxCell>
        <mxCell id="YXTWCQ9cUPDG9p8AuI5y-22" value="CDE" style="rounded=0;whiteSpace=wrap;html=1;verticalAlign=middle;fillColor=#fff2cc;strokeColor=#d6b656;" parent="1" vertex="1">
          <mxGeometry x="965.5" y="613" width="120" height="60" as="geometry" />
        </mxCell>
        <mxCell id="YXTWCQ9cUPDG9p8AuI5y-23" value="Policy" style="rounded=0;whiteSpace=wrap;html=1;verticalAlign=middle;fillColor=#dae8fc;strokeColor=#6c8ebf;" parent="1" vertex="1">
          <mxGeometry x="282" y="319" width="360" height="60" as="geometry" />
        </mxCell>
        <mxCell id="YXTWCQ9cUPDG9p8AuI5y-24" style="edgeStyle=orthogonalEdgeStyle;rounded=0;orthogonalLoop=1;jettySize=auto;html=1;entryX=0.5;entryY=1;entryDx=0;entryDy=0;endArrow=diamondThin;endFill=1;endSize=15;startSize=15;" parent="1" source="YXTWCQ9cUPDG9p8AuI5y-25" target="YXTWCQ9cUPDG9p8AuI5y-23" edge="1">
          <mxGeometry relative="1" as="geometry">
            <mxPoint x="601" y="628" as="targetPoint" />
          </mxGeometry>
        </mxCell>
        <mxCell id="YXTWCQ9cUPDG9p8AuI5y-25" value="InsurableObject" style="rounded=0;whiteSpace=wrap;html=1;verticalAlign=middle;fillColor=#dae8fc;strokeColor=#6c8ebf;" parent="1" vertex="1">
          <mxGeometry x="402" y="580" width="120" height="60" as="geometry" />
        </mxCell>
        <mxCell id="YXTWCQ9cUPDG9p8AuI5y-26" style="edgeStyle=orthogonalEdgeStyle;rounded=0;orthogonalLoop=1;jettySize=auto;html=1;entryX=0.5;entryY=1;entryDx=0;entryDy=0;endArrow=diamondThin;endFill=1;startSize=15;endSize=15;" parent="1" source="YXTWCQ9cUPDG9p8AuI5y-27" target="YXTWCQ9cUPDG9p8AuI5y-25" edge="1">
          <mxGeometry relative="1" as="geometry" />
        </mxCell>
        <mxCell id="YXTWCQ9cUPDG9p8AuI5y-27" value="Coverage" style="rounded=0;whiteSpace=wrap;html=1;verticalAlign=middle;fillColor=#dae8fc;strokeColor=#6c8ebf;" parent="1" vertex="1">
          <mxGeometry x="289" y="725" width="120" height="60" as="geometry" />
        </mxCell>
        <mxCell id="YXTWCQ9cUPDG9p8AuI5y-28" style="edgeStyle=orthogonalEdgeStyle;rounded=0;orthogonalLoop=1;jettySize=auto;html=1;entryX=0.5;entryY=1;entryDx=0;entryDy=0;endArrow=diamondThin;endFill=1;startSize=15;endSize=15;" parent="1" source="YXTWCQ9cUPDG9p8AuI5y-29" target="YXTWCQ9cUPDG9p8AuI5y-124" edge="1">
          <mxGeometry relative="1" as="geometry" />
        </mxCell>
        <mxCell id="YXTWCQ9cUPDG9p8AuI5y-29" value="Event" style="rounded=0;whiteSpace=wrap;html=1;verticalAlign=middle;fillColor=#dae8fc;strokeColor=#6c8ebf;" parent="1" vertex="1">
          <mxGeometry x="70" y="439" width="120" height="60" as="geometry" />
        </mxCell>
        <mxCell id="YXTWCQ9cUPDG9p8AuI5y-35" value="PartyRol" style="rounded=0;whiteSpace=wrap;html=1;verticalAlign=middle;fillColor=#dae8fc;strokeColor=#6c8ebf;" parent="1" vertex="1">
          <mxGeometry x="1200" y="481" width="120" height="60" as="geometry" />
        </mxCell>
        <mxCell id="YXTWCQ9cUPDG9p8AuI5y-38" style="edgeStyle=orthogonalEdgeStyle;rounded=0;orthogonalLoop=1;jettySize=auto;html=1;entryX=0.5;entryY=1;entryDx=0;entryDy=0;endArrow=diamondThin;endFill=0;startSize=15;endSize=15;exitX=0;exitY=0.5;exitDx=0;exitDy=0;" parent="1" source="YXTWCQ9cUPDG9p8AuI5y-39" target="YXTWCQ9cUPDG9p8AuI5y-35" edge="1">
          <mxGeometry relative="1" as="geometry">
            <Array as="points">
              <mxPoint x="1260" y="570" />
            </Array>
          </mxGeometry>
        </mxCell>
        <mxCell id="YXTWCQ9cUPDG9p8AuI5y-39" value="CDE" style="rounded=0;whiteSpace=wrap;html=1;verticalAlign=middle;fillColor=#fff2cc;strokeColor=#d6b656;" parent="1" vertex="1">
          <mxGeometry x="1330" y="540" width="120" height="60" as="geometry" />
        </mxCell>
        <mxCell id="YXTWCQ9cUPDG9p8AuI5y-46" style="edgeStyle=orthogonalEdgeStyle;rounded=0;orthogonalLoop=1;jettySize=auto;html=1;entryX=1;entryY=0.75;entryDx=0;entryDy=0;endArrow=diamondThin;endFill=0;startSize=15;endSize=15;exitX=1;exitY=0.95;exitDx=0;exitDy=0;exitPerimeter=0;" parent="1" source="YXTWCQ9cUPDG9p8AuI5y-93" target="YXTWCQ9cUPDG9p8AuI5y-25" edge="1">
          <mxGeometry relative="1" as="geometry">
            <Array as="points">
              <mxPoint x="680" y="670" />
              <mxPoint x="640" y="670" />
              <mxPoint x="640" y="625" />
            </Array>
          </mxGeometry>
        </mxCell>
        <mxCell id="YXTWCQ9cUPDG9p8AuI5y-47" value="Requeriment" style="rounded=0;whiteSpace=wrap;html=1;verticalAlign=middle;fillColor=#dae8fc;strokeColor=#6c8ebf;" parent="1" vertex="1">
          <mxGeometry x="680" y="640" width="120" height="60" as="geometry" />
        </mxCell>
        <mxCell id="YXTWCQ9cUPDG9p8AuI5y-48" style="edgeStyle=orthogonalEdgeStyle;rounded=0;orthogonalLoop=1;jettySize=auto;html=1;endArrow=diamondThin;endFill=0;startSize=15;endSize=15;entryX=0.5;entryY=0;entryDx=0;entryDy=0;" parent="1" source="YXTWCQ9cUPDG9p8AuI5y-49" target="YXTWCQ9cUPDG9p8AuI5y-23" edge="1">
          <mxGeometry relative="1" as="geometry">
            <mxPoint x="131" y="320" as="targetPoint" />
          </mxGeometry>
        </mxCell>
        <mxCell id="YXTWCQ9cUPDG9p8AuI5y-49" value="Agreement" style="rounded=0;whiteSpace=wrap;html=1;fillColor=#dae8fc;strokeColor=#6c8ebf;" parent="1" vertex="1">
          <mxGeometry x="402" y="91" width="120" height="60" as="geometry" />
        </mxCell>
        <mxCell id="YXTWCQ9cUPDG9p8AuI5y-50" style="edgeStyle=orthogonalEdgeStyle;rounded=0;orthogonalLoop=1;jettySize=auto;html=1;entryX=0.5;entryY=1;entryDx=0;entryDy=0;endArrow=diamondThin;endFill=0;startSize=15;endSize=15;exitX=0;exitY=0.5;exitDx=0;exitDy=0;" parent="1" edge="1">
          <mxGeometry relative="1" as="geometry">
            <Array as="points">
              <mxPoint x="803" y="759" />
              <mxPoint x="740" y="759" />
            </Array>
            <mxPoint x="803" y="754" as="sourcePoint" />
            <mxPoint x="740" y="699" as="targetPoint" />
          </mxGeometry>
        </mxCell>
        <mxCell id="YXTWCQ9cUPDG9p8AuI5y-51" value="CDE" style="rounded=0;whiteSpace=wrap;html=1;verticalAlign=middle;fillColor=#fff2cc;strokeColor=#d6b656;" parent="1" vertex="1">
          <mxGeometry x="803" y="725" width="120" height="60" as="geometry" />
        </mxCell>
        <mxCell id="YXTWCQ9cUPDG9p8AuI5y-53" value="Address Book" style="rounded=0;whiteSpace=wrap;html=1;fillColor=#dae8fc;strokeColor=#6c8ebf;" parent="1" vertex="1">
          <mxGeometry x="1200" y="602" width="120" height="60" as="geometry" />
        </mxCell>
        <mxCell id="YXTWCQ9cUPDG9p8AuI5y-54" style="edgeStyle=orthogonalEdgeStyle;rounded=0;orthogonalLoop=1;jettySize=auto;html=1;entryX=0.5;entryY=1;entryDx=0;entryDy=0;endArrow=diamondThin;endFill=0;startSize=15;endSize=15;exitX=0;exitY=0.5;exitDx=0;exitDy=0;" parent="1" source="YXTWCQ9cUPDG9p8AuI5y-55" target="YXTWCQ9cUPDG9p8AuI5y-53" edge="1">
          <mxGeometry relative="1" as="geometry">
            <Array as="points">
              <mxPoint x="1260" y="692" />
            </Array>
          </mxGeometry>
        </mxCell>
        <mxCell id="YXTWCQ9cUPDG9p8AuI5y-55" value="CDE" style="rounded=0;whiteSpace=wrap;html=1;verticalAlign=middle;fillColor=#fff2cc;strokeColor=#d6b656;" parent="1" vertex="1">
          <mxGeometry x="1330" y="662" width="120" height="60" as="geometry" />
        </mxCell>
        <mxCell id="YXTWCQ9cUPDG9p8AuI5y-56" style="edgeStyle=orthogonalEdgeStyle;rounded=0;orthogonalLoop=1;jettySize=auto;html=1;endArrow=diamondThin;endFill=1;startSize=15;endSize=15;exitX=0;exitY=0.25;exitDx=0;exitDy=0;" parent="1" source="YXTWCQ9cUPDG9p8AuI5y-57" target="YXTWCQ9cUPDG9p8AuI5y-23" edge="1">
          <mxGeometry relative="1" as="geometry">
            <mxPoint x="1258" y="218.5" as="sourcePoint" />
            <mxPoint x="900.5" y="349" as="targetPoint" />
            <Array as="points">
              <mxPoint x="880" y="455" />
              <mxPoint x="880" y="349" />
            </Array>
          </mxGeometry>
        </mxCell>
        <mxCell id="YXTWCQ9cUPDG9p8AuI5y-57" value="Participation" style="rounded=0;whiteSpace=wrap;html=1;fillColor=#dae8fc;strokeColor=#6c8ebf;" parent="1" vertex="1">
          <mxGeometry x="961" y="440" width="129" height="60" as="geometry" />
        </mxCell>
        <mxCell id="YXTWCQ9cUPDG9p8AuI5y-58" style="edgeStyle=orthogonalEdgeStyle;rounded=0;orthogonalLoop=1;jettySize=auto;html=1;entryX=0.75;entryY=0;entryDx=0;entryDy=0;endArrow=diamondThin;endFill=1;startSize=15;endSize=15;exitX=0;exitY=0.5;exitDx=0;exitDy=0;" parent="1" source="YXTWCQ9cUPDG9p8AuI5y-59" target="YXTWCQ9cUPDG9p8AuI5y-12" edge="1">
          <mxGeometry relative="1" as="geometry">
            <Array as="points">
              <mxPoint x="161" y="110" />
            </Array>
          </mxGeometry>
        </mxCell>
        <mxCell id="YXTWCQ9cUPDG9p8AuI5y-59" value="Product Configuration" style="rounded=0;whiteSpace=wrap;html=1;fillColor=#dae8fc;strokeColor=#6c8ebf;" parent="1" vertex="1">
          <mxGeometry x="242" y="80" width="120" height="60" as="geometry" />
        </mxCell>
        <mxCell id="YXTWCQ9cUPDG9p8AuI5y-60" style="edgeStyle=orthogonalEdgeStyle;rounded=0;orthogonalLoop=1;jettySize=auto;html=1;endArrow=diamondThin;endFill=0;startSize=15;endSize=15;exitX=0;exitY=0.5;exitDx=0;exitDy=0;entryX=0.75;entryY=0;entryDx=0;entryDy=0;" parent="1" source="YXTWCQ9cUPDG9p8AuI5y-61" target="YXTWCQ9cUPDG9p8AuI5y-25" edge="1">
          <mxGeometry relative="1" as="geometry">
            <Array as="points">
              <mxPoint x="492" y="541" />
            </Array>
            <mxPoint x="950" y="542" as="targetPoint" />
          </mxGeometry>
        </mxCell>
        <mxCell id="YXTWCQ9cUPDG9p8AuI5y-61" value="CDE" style="rounded=0;whiteSpace=wrap;html=1;verticalAlign=middle;fillColor=#fff2cc;strokeColor=#d6b656;" parent="1" vertex="1">
          <mxGeometry x="662" y="511" width="120" height="60" as="geometry" />
        </mxCell>
        <mxCell id="YXTWCQ9cUPDG9p8AuI5y-62" style="edgeStyle=orthogonalEdgeStyle;rounded=0;orthogonalLoop=1;jettySize=auto;html=1;entryX=0;entryY=0.5;entryDx=0;entryDy=0;endArrow=diamondThin;endFill=0;startSize=15;endSize=15;" parent="1" edge="1">
          <mxGeometry relative="1" as="geometry">
            <Array as="points" />
            <mxPoint x="168" y="349" as="sourcePoint" />
            <mxPoint x="281" y="349" as="targetPoint" />
          </mxGeometry>
        </mxCell>
        <mxCell id="YXTWCQ9cUPDG9p8AuI5y-63" value="1" style="text;html=1;align=center;verticalAlign=middle;resizable=0;points=[];autosize=1;strokeColor=none;fillColor=none;" parent="1" vertex="1">
          <mxGeometry x="222" y="89" width="20" height="20" as="geometry" />
        </mxCell>
        <mxCell id="YXTWCQ9cUPDG9p8AuI5y-64" value="1" style="text;html=1;align=center;verticalAlign=middle;resizable=0;points=[];autosize=1;strokeColor=none;fillColor=none;" parent="1" vertex="1">
          <mxGeometry x="141" y="187" width="20" height="20" as="geometry" />
        </mxCell>
        <mxCell id="YXTWCQ9cUPDG9p8AuI5y-65" value="1" style="text;html=1;align=center;verticalAlign=middle;resizable=0;points=[];autosize=1;strokeColor=none;fillColor=none;" parent="1" vertex="1">
          <mxGeometry x="81" y="187" width="20" height="20" as="geometry" />
        </mxCell>
        <mxCell id="YXTWCQ9cUPDG9p8AuI5y-66" value="1" style="text;html=1;align=center;verticalAlign=middle;resizable=0;points=[];autosize=1;strokeColor=none;fillColor=none;" parent="1" vertex="1">
          <mxGeometry x="72" y="141" width="20" height="20" as="geometry" />
        </mxCell>
        <mxCell id="YXTWCQ9cUPDG9p8AuI5y-67" value="1" style="text;html=1;align=center;verticalAlign=middle;resizable=0;points=[];autosize=1;strokeColor=none;fillColor=none;" parent="1" vertex="1">
          <mxGeometry x="442" y="151" width="20" height="20" as="geometry" />
        </mxCell>
        <mxCell id="YXTWCQ9cUPDG9p8AuI5y-68" value="0..*" style="text;html=1;align=center;verticalAlign=middle;resizable=0;points=[];autosize=1;strokeColor=none;fillColor=none;" parent="1" vertex="1">
          <mxGeometry x="422" y="299" width="30" height="20" as="geometry" />
        </mxCell>
        <mxCell id="YXTWCQ9cUPDG9p8AuI5y-69" value="1" style="text;html=1;align=center;verticalAlign=middle;resizable=0;points=[];autosize=1;strokeColor=none;fillColor=none;" parent="1" vertex="1">
          <mxGeometry x="191" y="228" width="20" height="20" as="geometry" />
        </mxCell>
        <mxCell id="YXTWCQ9cUPDG9p8AuI5y-70" value="1" style="text;html=1;align=center;verticalAlign=middle;resizable=0;points=[];autosize=1;strokeColor=none;fillColor=none;" parent="1" vertex="1">
          <mxGeometry x="341" y="299" width="20" height="20" as="geometry" />
        </mxCell>
        <mxCell id="YXTWCQ9cUPDG9p8AuI5y-71" value="1" style="text;html=1;align=center;verticalAlign=middle;resizable=0;points=[];autosize=1;strokeColor=none;fillColor=none;" parent="1" vertex="1">
          <mxGeometry x="557" y="231" width="20" height="20" as="geometry" />
        </mxCell>
        <mxCell id="YXTWCQ9cUPDG9p8AuI5y-72" value="1" style="text;html=1;align=center;verticalAlign=middle;resizable=0;points=[];autosize=1;strokeColor=none;fillColor=none;" parent="1" vertex="1">
          <mxGeometry x="560" y="299" width="20" height="20" as="geometry" />
        </mxCell>
        <mxCell id="YXTWCQ9cUPDG9p8AuI5y-73" value="0..1" style="text;html=1;align=center;verticalAlign=middle;resizable=0;points=[];autosize=1;strokeColor=none;fillColor=none;" parent="1" vertex="1">
          <mxGeometry x="628" y="432" width="40" height="20" as="geometry" />
        </mxCell>
        <mxCell id="YXTWCQ9cUPDG9p8AuI5y-74" value="1" style="text;html=1;align=center;verticalAlign=middle;resizable=0;points=[];autosize=1;strokeColor=none;fillColor=none;" parent="1" vertex="1">
          <mxGeometry x="522" y="379" width="20" height="20" as="geometry" />
        </mxCell>
        <mxCell id="YXTWCQ9cUPDG9p8AuI5y-75" value="1" style="text;html=1;align=center;verticalAlign=middle;resizable=0;points=[];autosize=1;strokeColor=none;fillColor=none;" parent="1" vertex="1">
          <mxGeometry x="100" y="421" width="20" height="20" as="geometry" />
        </mxCell>
        <mxCell id="YXTWCQ9cUPDG9p8AuI5y-76" value="1" style="text;html=1;align=center;verticalAlign=middle;resizable=0;points=[];autosize=1;strokeColor=none;fillColor=none;" parent="1" vertex="1">
          <mxGeometry x="101" y="548" width="20" height="20" as="geometry" />
        </mxCell>
        <mxCell id="YXTWCQ9cUPDG9p8AuI5y-77" value="1..*" style="text;html=1;align=center;verticalAlign=middle;resizable=0;points=[];autosize=1;strokeColor=none;fillColor=none;" parent="1" vertex="1">
          <mxGeometry x="437" y="560" width="30" height="20" as="geometry" />
        </mxCell>
        <mxCell id="YXTWCQ9cUPDG9p8AuI5y-78" value="1..*" style="text;html=1;align=center;verticalAlign=middle;resizable=0;points=[];autosize=1;strokeColor=none;fillColor=none;" parent="1" vertex="1">
          <mxGeometry x="324" y="705" width="30" height="20" as="geometry" />
        </mxCell>
        <mxCell id="YXTWCQ9cUPDG9p8AuI5y-79" value="1" style="text;html=1;align=center;verticalAlign=middle;resizable=0;points=[];autosize=1;strokeColor=none;fillColor=none;" parent="1" vertex="1">
          <mxGeometry x="299" y="705" width="20" height="20" as="geometry" />
        </mxCell>
        <mxCell id="YXTWCQ9cUPDG9p8AuI5y-80" value="1" style="text;html=1;align=center;verticalAlign=middle;resizable=0;points=[];autosize=1;strokeColor=none;fillColor=none;" parent="1" vertex="1">
          <mxGeometry x="492" y="542" width="20" height="20" as="geometry" />
        </mxCell>
        <mxCell id="YXTWCQ9cUPDG9p8AuI5y-81" value="1" style="text;html=1;align=center;verticalAlign=middle;resizable=0;points=[];autosize=1;strokeColor=none;fillColor=none;" parent="1" vertex="1">
          <mxGeometry x="641" y="522" width="20" height="20" as="geometry" />
        </mxCell>
        <mxCell id="YXTWCQ9cUPDG9p8AuI5y-82" value="1" style="text;html=1;align=center;verticalAlign=middle;resizable=0;points=[];autosize=1;strokeColor=none;fillColor=none;" parent="1" vertex="1">
          <mxGeometry x="269" y="658" width="20" height="20" as="geometry" />
        </mxCell>
        <mxCell id="YXTWCQ9cUPDG9p8AuI5y-90" value="0..1" style="text;html=1;align=center;verticalAlign=middle;resizable=0;points=[];autosize=1;strokeColor=none;fillColor=none;" parent="1" vertex="1">
          <mxGeometry x="251" y="736" width="40" height="20" as="geometry" />
        </mxCell>
        <mxCell id="YXTWCQ9cUPDG9p8AuI5y-91" value="1" style="text;html=1;align=center;verticalAlign=middle;resizable=0;points=[];autosize=1;strokeColor=none;fillColor=none;" parent="1" vertex="1">
          <mxGeometry x="438" y="640" width="20" height="20" as="geometry" />
        </mxCell>
        <mxCell id="YXTWCQ9cUPDG9p8AuI5y-92" value="1" style="text;html=1;align=center;verticalAlign=middle;resizable=0;points=[];autosize=1;strokeColor=none;fillColor=none;" parent="1" vertex="1">
          <mxGeometry x="432" y="379" width="20" height="20" as="geometry" />
        </mxCell>
        <mxCell id="YXTWCQ9cUPDG9p8AuI5y-93" value="0..*" style="text;html=1;align=center;verticalAlign=middle;resizable=0;points=[];autosize=1;strokeColor=none;fillColor=none;" parent="1" vertex="1">
          <mxGeometry x="650" y="652" width="30" height="20" as="geometry" />
        </mxCell>
        <mxCell id="YXTWCQ9cUPDG9p8AuI5y-94" value="1..*" style="text;html=1;align=center;verticalAlign=middle;resizable=0;points=[];autosize=1;strokeColor=none;fillColor=none;" parent="1" vertex="1">
          <mxGeometry x="462" y="640" width="30" height="20" as="geometry" />
        </mxCell>
        <mxCell id="YXTWCQ9cUPDG9p8AuI5y-95" value="1" style="text;html=1;align=center;verticalAlign=middle;resizable=0;points=[];autosize=1;strokeColor=none;fillColor=none;" parent="1" vertex="1">
          <mxGeometry x="543" y="702" width="20" height="20" as="geometry" />
        </mxCell>
        <mxCell id="YXTWCQ9cUPDG9p8AuI5y-96" value="1..*" style="text;html=1;align=center;verticalAlign=middle;resizable=0;points=[];autosize=1;strokeColor=none;fillColor=none;" parent="1" vertex="1">
          <mxGeometry x="535" y="608" width="30" height="20" as="geometry" />
        </mxCell>
        <mxCell id="YXTWCQ9cUPDG9p8AuI5y-97" value="1" style="text;html=1;align=center;verticalAlign=middle;resizable=0;points=[];autosize=1;strokeColor=none;fillColor=none;" parent="1" vertex="1">
          <mxGeometry x="534" y="593" width="20" height="20" as="geometry" />
        </mxCell>
        <mxCell id="YXTWCQ9cUPDG9p8AuI5y-98" value="1" style="text;html=1;align=center;verticalAlign=middle;resizable=0;points=[];autosize=1;strokeColor=none;fillColor=none;" parent="1" vertex="1">
          <mxGeometry x="661" y="330" width="20" height="20" as="geometry" />
        </mxCell>
        <mxCell id="YXTWCQ9cUPDG9p8AuI5y-99" value="1" style="text;html=1;align=center;verticalAlign=middle;resizable=0;points=[];autosize=1;strokeColor=none;fillColor=none;" parent="1" vertex="1">
          <mxGeometry x="242" y="330" width="20" height="20" as="geometry" />
        </mxCell>
        <mxCell id="YXTWCQ9cUPDG9p8AuI5y-100" value="1" style="text;html=1;align=center;verticalAlign=middle;resizable=0;points=[];autosize=1;strokeColor=none;fillColor=none;" parent="1" vertex="1">
          <mxGeometry x="782" y="757" width="20" height="20" as="geometry" />
        </mxCell>
        <mxCell id="YXTWCQ9cUPDG9p8AuI5y-101" value="1" style="text;html=1;align=center;verticalAlign=middle;resizable=0;points=[];autosize=1;strokeColor=none;fillColor=none;" parent="1" vertex="1">
          <mxGeometry x="713" y="700" width="20" height="20" as="geometry" />
        </mxCell>
        <mxCell id="YXTWCQ9cUPDG9p8AuI5y-102" value="1..*" style="text;html=1;align=center;verticalAlign=middle;resizable=0;points=[];autosize=1;strokeColor=none;fillColor=none;" parent="1" vertex="1">
          <mxGeometry x="182" y="325" width="40" height="30" as="geometry" />
        </mxCell>
        <mxCell id="YXTWCQ9cUPDG9p8AuI5y-103" value="1" style="text;html=1;align=center;verticalAlign=middle;resizable=0;points=[];autosize=1;strokeColor=none;fillColor=none;" parent="1" vertex="1">
          <mxGeometry x="1032" y="502" width="20" height="20" as="geometry" />
        </mxCell>
        <mxCell id="YXTWCQ9cUPDG9p8AuI5y-104" value="1" style="text;html=1;align=center;verticalAlign=middle;resizable=0;points=[];autosize=1;strokeColor=none;fillColor=none;" parent="1" vertex="1">
          <mxGeometry x="1037" y="588" width="20" height="20" as="geometry" />
        </mxCell>
        <mxCell id="YXTWCQ9cUPDG9p8AuI5y-109" value="1" style="text;html=1;align=center;verticalAlign=middle;resizable=0;points=[];autosize=1;strokeColor=none;fillColor=none;" parent="1" vertex="1">
          <mxGeometry x="1236" y="538" width="20" height="20" as="geometry" />
        </mxCell>
        <mxCell id="YXTWCQ9cUPDG9p8AuI5y-110" value="1" style="text;html=1;align=center;verticalAlign=middle;resizable=0;points=[];autosize=1;strokeColor=none;fillColor=none;" parent="1" vertex="1">
          <mxGeometry x="1310" y="550" width="20" height="20" as="geometry" />
        </mxCell>
        <mxCell id="YXTWCQ9cUPDG9p8AuI5y-111" value="1" style="text;html=1;align=center;verticalAlign=middle;resizable=0;points=[];autosize=1;strokeColor=none;fillColor=none;" parent="1" vertex="1">
          <mxGeometry x="1240" y="661" width="20" height="20" as="geometry" />
        </mxCell>
        <mxCell id="YXTWCQ9cUPDG9p8AuI5y-112" value="1" style="text;html=1;align=center;verticalAlign=middle;resizable=0;points=[];autosize=1;strokeColor=none;fillColor=none;" parent="1" vertex="1">
          <mxGeometry x="1310" y="671" width="20" height="20" as="geometry" />
        </mxCell>
        <mxCell id="YXTWCQ9cUPDG9p8AuI5y-121" value="0..*" style="text;html=1;align=center;verticalAlign=middle;resizable=0;points=[];autosize=1;strokeColor=none;fillColor=none;" parent="1" vertex="1">
          <mxGeometry x="1226" y="207" width="30" height="20" as="geometry" />
        </mxCell>
        <mxCell id="YXTWCQ9cUPDG9p8AuI5y-122" value="1" style="text;html=1;align=center;verticalAlign=middle;resizable=0;points=[];autosize=1;strokeColor=none;fillColor=none;" parent="1" vertex="1">
          <mxGeometry x="1390" y="183.5" width="20" height="20" as="geometry" />
        </mxCell>
        <mxCell id="YXTWCQ9cUPDG9p8AuI5y-124" value="Operation" style="rounded=0;whiteSpace=wrap;html=1;fillColor=#dae8fc;strokeColor=#6c8ebf;" parent="1" vertex="1">
          <mxGeometry x="70" y="319" width="120" height="60" as="geometry" />
        </mxCell>
        <mxCell id="YXTWCQ9cUPDG9p8AuI5y-125" style="edgeStyle=orthogonalEdgeStyle;rounded=0;orthogonalLoop=1;jettySize=auto;html=1;endArrow=diamondThin;endFill=1;startSize=15;endSize=15;exitX=0;exitY=0.75;exitDx=0;exitDy=0;entryX=1;entryY=0.5;entryDx=0;entryDy=0;" parent="1" source="YXTWCQ9cUPDG9p8AuI5y-57" target="YXTWCQ9cUPDG9p8AuI5y-25" edge="1">
          <mxGeometry relative="1" as="geometry">
            <mxPoint x="1310.27" y="204.5" as="sourcePoint" />
            <mxPoint x="1031" y="610" as="targetPoint" />
            <Array as="points">
              <mxPoint x="880" y="485" />
              <mxPoint x="880" y="610" />
            </Array>
          </mxGeometry>
        </mxCell>
        <mxCell id="YXTWCQ9cUPDG9p8AuI5y-126" value="0..*" style="text;html=1;align=center;verticalAlign=middle;resizable=0;points=[];autosize=1;strokeColor=none;fillColor=none;" parent="1" vertex="1">
          <mxGeometry x="923" y="432" width="30" height="20" as="geometry" />
        </mxCell>
        <mxCell id="YXTWCQ9cUPDG9p8AuI5y-127" value="0..*" style="text;html=1;align=center;verticalAlign=middle;resizable=0;points=[];autosize=1;strokeColor=none;fillColor=none;" parent="1" vertex="1">
          <mxGeometry x="923" y="491" width="30" height="20" as="geometry" />
        </mxCell>
        <mxCell id="YXTWCQ9cUPDG9p8AuI5y-129" value="1" style="text;html=1;align=center;verticalAlign=middle;resizable=0;points=[];autosize=1;strokeColor=none;fillColor=none;" parent="1" vertex="1">
          <mxGeometry x="101" y="379" width="20" height="20" as="geometry" />
        </mxCell>
        <mxCell id="YXTWCQ9cUPDG9p8AuI5y-130" value="0..1" style="text;html=1;align=center;verticalAlign=middle;resizable=0;points=[];autosize=1;strokeColor=none;fillColor=none;" parent="1" vertex="1">
          <mxGeometry x="100" y="502" width="40" height="20" as="geometry" />
        </mxCell>
        <mxCell id="YXTWCQ9cUPDG9p8AuI5y-131" value="Party" style="rounded=0;whiteSpace=wrap;html=1;verticalAlign=middle;fillColor=#dae8fc;strokeColor=#6c8ebf;" parent="1" vertex="1">
          <mxGeometry x="1200" y="362" width="120" height="60" as="geometry" />
        </mxCell>
        <mxCell id="YXTWCQ9cUPDG9p8AuI5y-132" style="edgeStyle=orthogonalEdgeStyle;rounded=0;orthogonalLoop=1;jettySize=auto;html=1;entryX=0.5;entryY=1;entryDx=0;entryDy=0;endArrow=diamondThin;endFill=0;startSize=15;endSize=15;exitX=0;exitY=0.5;exitDx=0;exitDy=0;" parent="1" source="YXTWCQ9cUPDG9p8AuI5y-133" target="YXTWCQ9cUPDG9p8AuI5y-131" edge="1">
          <mxGeometry relative="1" as="geometry">
            <Array as="points">
              <mxPoint x="1260" y="451" />
            </Array>
          </mxGeometry>
        </mxCell>
        <mxCell id="YXTWCQ9cUPDG9p8AuI5y-133" value="CDE" style="rounded=0;whiteSpace=wrap;html=1;verticalAlign=middle;fillColor=#fff2cc;strokeColor=#d6b656;" parent="1" vertex="1">
          <mxGeometry x="1330" y="421" width="120" height="60" as="geometry" />
        </mxCell>
        <mxCell id="YXTWCQ9cUPDG9p8AuI5y-134" value="1" style="text;html=1;align=center;verticalAlign=middle;resizable=0;points=[];autosize=1;strokeColor=none;fillColor=none;" parent="1" vertex="1">
          <mxGeometry x="1236" y="419" width="20" height="20" as="geometry" />
        </mxCell>
        <mxCell id="YXTWCQ9cUPDG9p8AuI5y-135" value="1" style="text;html=1;align=center;verticalAlign=middle;resizable=0;points=[];autosize=1;strokeColor=none;fillColor=none;" parent="1" vertex="1">
          <mxGeometry x="1310" y="431" width="20" height="20" as="geometry" />
        </mxCell>
        <mxCell id="YXTWCQ9cUPDG9p8AuI5y-142" value="PaymentMode" style="rounded=0;whiteSpace=wrap;html=1;verticalAlign=middle;fillColor=#dae8fc;strokeColor=#6c8ebf;" parent="1" vertex="1">
          <mxGeometry x="1200" y="242.5" width="120" height="60" as="geometry" />
        </mxCell>
        <mxCell id="YXTWCQ9cUPDG9p8AuI5y-143" style="edgeStyle=orthogonalEdgeStyle;rounded=0;orthogonalLoop=1;jettySize=auto;html=1;entryX=0.5;entryY=1;entryDx=0;entryDy=0;endArrow=diamondThin;endFill=0;startSize=15;endSize=15;exitX=0;exitY=0.5;exitDx=0;exitDy=0;" parent="1" source="YXTWCQ9cUPDG9p8AuI5y-144" target="YXTWCQ9cUPDG9p8AuI5y-142" edge="1">
          <mxGeometry relative="1" as="geometry">
            <Array as="points">
              <mxPoint x="1260" y="331.5" />
            </Array>
          </mxGeometry>
        </mxCell>
        <mxCell id="YXTWCQ9cUPDG9p8AuI5y-144" value="CDE" style="rounded=0;whiteSpace=wrap;html=1;verticalAlign=middle;fillColor=#fff2cc;strokeColor=#d6b656;" parent="1" vertex="1">
          <mxGeometry x="1330" y="301.5" width="120" height="60" as="geometry" />
        </mxCell>
        <mxCell id="YXTWCQ9cUPDG9p8AuI5y-145" value="1" style="text;html=1;align=center;verticalAlign=middle;resizable=0;points=[];autosize=1;strokeColor=none;fillColor=none;" parent="1" vertex="1">
          <mxGeometry x="1236" y="299.5" width="20" height="20" as="geometry" />
        </mxCell>
        <mxCell id="YXTWCQ9cUPDG9p8AuI5y-146" value="1" style="text;html=1;align=center;verticalAlign=middle;resizable=0;points=[];autosize=1;strokeColor=none;fillColor=none;" parent="1" vertex="1">
          <mxGeometry x="1310" y="311.5" width="20" height="20" as="geometry" />
        </mxCell>
      </root>
    </mxGraphModel>
  </diagram>
</mxfile>
